solid I
facet normal 0.0 0.0 -1.0
outer loop
vertex 25.64078493025206 40.16155010867809 0.0
vertex 22.640784930252053 22.961550108678104 0.0
vertex 22.640784930252053 40.16155010867809 0.0
endloop
endfacet
facet normal 0.0 0.0 -1.0
outer loop
vertex 22.640784930252053 22.961550108678104 0.0
vertex 25.64078493025206 40.16155010867809 0.0
vertex 25.640784930252053 22.961550108678104 0.0
endloop
endfacet
facet normal 0.0 0.0 -1.0
outer loop
vertex 25.640784930252053 22.961550108678104 0.0
vertex 25.64078493025206 40.16155010867809 0.0
vertex 27.140784930252053 24.9615501086781 0.0
endloop
endfacet
facet normal 0.0 0.0 -1.0
outer loop
vertex 27.140784930252053 24.9615501086781 0.0
vertex 25.64078493025206 40.16155010867809 0.0
vertex 27.140784930252064 38.16155010867809 0.0
endloop
endfacet
facet normal 0.0 0.0 -1.0
outer loop
vertex 27.140784930252053 24.9615501086781 0.0
vertex 27.140784930252064 38.16155010867809 0.0
vertex 44.94078493025206 24.9615501086781 0.0
endloop
endfacet
facet normal 0.0 0.0 -1.0
outer loop
vertex 44.94078493025206 24.9615501086781 0.0
vertex 27.140784930252064 38.16155010867809 0.0
vertex 44.94078493025206 38.16155010867809 0.0
endloop
endfacet
facet normal 0.0 0.0 -1.0
outer loop
vertex 44.94078493025206 24.9615501086781 0.0
vertex 44.94078493025206 38.16155010867809 0.0
vertex 46.44078493025206 40.16155010867809 0.0
endloop
endfacet
facet normal 0.0 0.0 -1.0
outer loop
vertex 44.94078493025206 24.9615501086781 0.0
vertex 46.44078493025206 40.16155010867809 0.0
vertex 46.44078493025206 22.961550108678104 0.0
endloop
endfacet
facet normal 0.0 0.0 -1.0
outer loop
vertex 46.44078493025206 22.961550108678104 0.0
vertex 46.44078493025206 40.16155010867809 0.0
vertex 58.84078493025204 40.16155010867809 0.0
endloop
endfacet
facet normal 0.0 0.0 -1.0
outer loop
vertex 46.44078493025206 22.961550108678104 0.0
vertex 58.84078493025204 40.16155010867809 0.0
vertex 58.84078493025204 22.961550108678104 0.0
endloop
endfacet
facet normal 0.0 0.0 -1.0
outer loop
vertex 58.84078493025204 22.961550108678104 0.0
vertex 58.84078493025204 40.16155010867809 0.0
vertex 60.34078493025204 38.16155010867809 0.0
endloop
endfacet
facet normal 0.0 0.0 -1.0
outer loop
vertex 58.84078493025204 22.961550108678104 0.0
vertex 60.34078493025204 38.16155010867809 0.0
vertex 60.34078493025204 24.9615501086781 0.0
endloop
endfacet
facet normal 0.0 0.0 -1.0
outer loop
vertex 60.34078493025204 24.9615501086781 0.0
vertex 60.34078493025204 38.16155010867809 0.0
vertex 78.14078493025205 38.16155010867809 0.0
endloop
endfacet
facet normal 0.0 0.0 -1.0
outer loop
vertex 60.34078493025204 24.9615501086781 0.0
vertex 78.14078493025205 38.16155010867809 0.0
vertex 78.14078493025205 24.9615501086781 0.0
endloop
endfacet
facet normal 0.0 0.0 -1.0
outer loop
vertex 78.14078493025205 24.9615501086781 0.0
vertex 78.14078493025205 38.16155010867809 0.0
vertex 79.64078493025205 40.26155010867809 0.0
endloop
endfacet
facet normal 0.0 0.0 -1.0
outer loop
vertex 78.14078493025205 24.9615501086781 0.0
vertex 79.64078493025205 40.26155010867809 0.0
vertex 79.64078493025205 22.961550108678104 0.0
endloop
endfacet
facet normal 0.0 0.0 -1.0
outer loop
vertex 79.64078493025205 22.961550108678104 0.0
vertex 79.64078493025205 40.26155010867809 0.0
vertex 82.64078493025205 40.26155010867809 0.0
endloop
endfacet
facet normal 0.0 0.0 -1.0
outer loop
vertex 79.64078493025205 22.961550108678104 0.0
vertex 82.64078493025205 40.26155010867809 0.0
vertex 82.64078493025205 22.961550108678104 0.0
endloop
endfacet
facet normal 1.0 0.0 0.0
outer loop
vertex 82.64078493025205 22.961550108678104 0.0
vertex 82.64078493025205 28.9615501086781 3.0
vertex 82.64078493025205 22.961550108678104 15.299999999999995
endloop
endfacet
facet normal 1.0 0.0 0.0
outer loop
vertex 82.64078493025205 28.9615501086781 3.0
vertex 82.64078493025205 22.961550108678104 0.0
vertex 82.64078493025205 40.26155010867809 0.0
endloop
endfacet
facet normal 1.0 0.0 0.0
outer loop
vertex 82.64078493025205 28.9615501086781 3.0
vertex 82.64078493025205 40.26155010867809 0.0
vertex 82.64078493025205 34.16155010867809 3.0
endloop
endfacet
facet normal 1.0 0.0 0.0
outer loop
vertex 82.64078493025205 34.16155010867809 3.0
vertex 82.64078493025205 40.26155010867809 0.0
vertex 82.64078493025205 34.16155010867809 15.299999999999995
endloop
endfacet
facet normal 1.0 0.0 0.0
outer loop
vertex 82.64078493025205 34.16155010867809 15.299999999999995
vertex 82.64078493025205 40.26155010867809 0.0
vertex 82.64078493025205 40.26155010867809 15.299999999999995
endloop
endfacet
facet normal 1.0 0.0 0.0
outer loop
vertex 82.64078493025205 28.9615501086781 15.299999999999995
vertex 82.64078493025205 22.961550108678104 15.299999999999995
vertex 82.64078493025205 28.9615501086781 3.0
endloop
endfacet
facet normal -1.0 0.0 0.0
outer loop
vertex 22.640784930252053 40.16155010867809 15.299999999999995
vertex 22.640784930252053 34.16155010867809 3.0
vertex 22.640784930252053 34.16155010867809 15.299999999999995
endloop
endfacet
facet normal -1.0 0.0 0.0
outer loop
vertex 22.640784930252053 28.9615501086781 15.299999999999995
vertex 22.640784930252053 22.961550108678104 0.0
vertex 22.640784930252053 22.961550108678104 15.299999999999995
endloop
endfacet
facet normal -1.0 0.0 0.0
outer loop
vertex 22.640784930252053 22.961550108678104 0.0
vertex 22.640784930252053 28.9615501086781 15.299999999999995
vertex 22.640784930252053 28.9615501086781 3.0
endloop
endfacet
facet normal -1.0 0.0 0.0
outer loop
vertex 22.640784930252053 22.961550108678104 0.0
vertex 22.640784930252053 28.9615501086781 3.0
vertex 22.640784930252053 40.16155010867809 0.0
endloop
endfacet
facet normal -1.0 0.0 0.0
outer loop
vertex 22.640784930252053 40.16155010867809 0.0
vertex 22.640784930252053 28.9615501086781 3.0
vertex 22.640784930252053 34.16155010867809 3.0
endloop
endfacet
facet normal -1.0 0.0 0.0
outer loop
vertex 22.640784930252053 40.16155010867809 0.0
vertex 22.640784930252053 34.16155010867809 3.0
vertex 22.640784930252053 40.16155010867809 15.299999999999995
endloop
endfacet
facet normal -0.0 -0.0 1.0
outer loop
vertex 82.64078493025205 28.9615501086781 3.0
vertex 22.640784930252053 34.16155010867809 3.0
vertex 22.640784930252053 28.9615501086781 3.0
endloop
endfacet
facet normal -0.0 -0.0 1.0
outer loop
vertex 22.640784930252053 34.16155010867809 3.0
vertex 82.64078493025205 28.9615501086781 3.0
vertex 82.64078493025205 34.16155010867809 3.0
endloop
endfacet
facet normal -0.0 -0.0 1.0
outer loop
vertex 25.640784930252053 22.961550108678104 15.299999999999995
vertex 22.640784930252053 28.9615501086781 15.299999999999995
vertex 22.640784930252053 22.961550108678104 15.299999999999995
endloop
endfacet
facet normal -0.0 -0.0 1.0
outer loop
vertex 22.640784930252053 28.9615501086781 15.299999999999995
vertex 25.640784930252053 22.961550108678104 15.299999999999995
vertex 27.140784930252053 24.9615501086781 15.299999999999995
endloop
endfacet
facet normal -0.0 -0.0 1.0
outer loop
vertex 22.640784930252053 28.9615501086781 15.299999999999995
vertex 27.140784930252053 24.9615501086781 15.299999999999995
vertex 82.64078493025205 28.9615501086781 15.299999999999995
endloop
endfacet
facet normal -0.0 -0.0 1.0
outer loop
vertex 82.64078493025205 28.9615501086781 15.299999999999995
vertex 27.140784930252053 24.9615501086781 15.299999999999995
vertex 44.94078493025206 24.9615501086781 15.299999999999995
endloop
endfacet
facet normal -0.0 -0.0 1.0
outer loop
vertex 82.64078493025205 28.9615501086781 15.299999999999995
vertex 44.94078493025206 24.9615501086781 15.299999999999995
vertex 46.44078493025206 22.961550108678104 15.299999999999995
endloop
endfacet
facet normal -0.0 -0.0 1.0
outer loop
vertex 82.64078493025205 28.9615501086781 15.299999999999995
vertex 46.44078493025206 22.961550108678104 15.299999999999995
vertex 60.34078493025204 24.9615501086781 15.299999999999995
endloop
endfacet
facet normal -0.0 -0.0 1.0
outer loop
vertex 60.34078493025204 24.9615501086781 15.299999999999995
vertex 46.44078493025206 22.961550108678104 15.299999999999995
vertex 58.84078493025204 22.961550108678104 15.299999999999995
endloop
endfacet
facet normal -0.0 -0.0 1.0
outer loop
vertex 82.64078493025205 28.9615501086781 15.299999999999995
vertex 60.34078493025204 24.9615501086781 15.299999999999995
vertex 78.14078493025205 24.9615501086781 15.299999999999995
endloop
endfacet
facet normal -0.0 -0.0 1.0
outer loop
vertex 82.64078493025205 28.9615501086781 15.299999999999995
vertex 78.14078493025205 24.9615501086781 15.299999999999995
vertex 79.64078493025205 22.961550108678104 15.299999999999995
endloop
endfacet
facet normal -0.0 -0.0 1.0
outer loop
vertex 82.64078493025205 28.9615501086781 15.299999999999995
vertex 79.64078493025205 22.961550108678104 15.299999999999995
vertex 82.64078493025205 22.961550108678104 15.299999999999995
endloop
endfacet
facet normal 0.0 1.0 0.0
outer loop
vertex 22.640784930252053 28.9615501086781 15.299999999999995
vertex 82.64078493025205 28.9615501086781 3.0
vertex 22.640784930252053 28.9615501086781 3.0
endloop
endfacet
facet normal 0.0 1.0 0.0
outer loop
vertex 82.64078493025205 28.9615501086781 3.0
vertex 22.640784930252053 28.9615501086781 15.299999999999995
vertex 82.64078493025205 28.9615501086781 15.299999999999995
endloop
endfacet
facet normal -0.0 -0.0 1.0
outer loop
vertex 22.640784930252053 34.16155010867809 15.299999999999995
vertex 27.140784930252057 38.16155010867809 15.299999999999995
vertex 22.640784930252053 40.16155010867809 15.299999999999995
endloop
endfacet
facet normal -0.0 -0.0 1.0
outer loop
vertex 27.140784930252057 38.16155010867809 15.299999999999995
vertex 22.640784930252053 34.16155010867809 15.299999999999995
vertex 82.64078493025205 34.16155010867809 15.299999999999995
endloop
endfacet
facet normal -0.0 -0.0 1.0
outer loop
vertex 22.640784930252053 40.16155010867809 15.299999999999995
vertex 27.140784930252057 38.16155010867809 15.299999999999995
vertex 25.640784930252053 40.16155010867809 15.299999999999995
endloop
endfacet
facet normal -0.0 -0.0 1.0
outer loop
vertex 27.140784930252057 38.16155010867809 15.299999999999995
vertex 82.64078493025205 34.16155010867809 15.299999999999995
vertex 44.94078493025206 38.16155010867809 15.299999999999995
endloop
endfacet
facet normal -0.0 -0.0 1.0
outer loop
vertex 44.94078493025206 38.16155010867809 15.299999999999995
vertex 82.64078493025205 34.16155010867809 15.299999999999995
vertex 46.44078493025206 40.16155010867809 15.299999999999995
endloop
endfacet
facet normal -0.0 -0.0 1.0
outer loop
vertex 46.44078493025206 40.16155010867809 15.299999999999995
vertex 82.64078493025205 34.16155010867809 15.299999999999995
vertex 60.34078493025204 38.16155010867809 15.299999999999995
endloop
endfacet
facet normal -0.0 -0.0 1.0
outer loop
vertex 46.44078493025206 40.16155010867809 15.299999999999995
vertex 60.34078493025204 38.16155010867809 15.299999999999995
vertex 58.84078493025204 40.16155010867809 15.299999999999995
endloop
endfacet
facet normal -0.0 -0.0 1.0
outer loop
vertex 60.34078493025204 38.16155010867809 15.299999999999995
vertex 82.64078493025205 34.16155010867809 15.299999999999995
vertex 78.14078493025205 38.16155010867809 15.299999999999995
endloop
endfacet
facet normal -0.0 -0.0 1.0
outer loop
vertex 78.14078493025205 38.16155010867809 15.299999999999995
vertex 82.64078493025205 34.16155010867809 15.299999999999995
vertex 79.64078493025205 40.26155010867809 15.299999999999995
endloop
endfacet
facet normal -0.0 -0.0 1.0
outer loop
vertex 79.64078493025205 40.26155010867809 15.299999999999995
vertex 82.64078493025205 34.16155010867809 15.299999999999995
vertex 82.64078493025205 40.26155010867809 15.299999999999995
endloop
endfacet
facet normal 0.0 -1.0 0.0
outer loop
vertex 82.64078493025205 34.16155010867809 15.299999999999995
vertex 22.640784930252053 34.16155010867809 3.0
vertex 82.64078493025205 34.16155010867809 3.0
endloop
endfacet
facet normal 0.0 -1.0 0.0
outer loop
vertex 22.640784930252053 34.16155010867809 3.0
vertex 82.64078493025205 34.16155010867809 15.299999999999995
vertex 22.640784930252053 34.16155010867809 15.299999999999995
endloop
endfacet
facet normal 0.0 -1.0 0.0
outer loop
vertex 78.14078493025205 24.9615501086781 15.299999999999995
vertex 60.34078493025204 24.9615501086781 0.0
vertex 78.14078493025205 24.9615501086781 0.0
endloop
endfacet
facet normal 0.0 -1.0 0.0
outer loop
vertex 60.34078493025204 24.9615501086781 0.0
vertex 78.14078493025205 24.9615501086781 15.299999999999995
vertex 60.34078493025204 24.9615501086781 15.299999999999995
endloop
endfacet
facet normal 0.0 -1.0 0.0
outer loop
vertex 82.64078493025205 22.961550108678104 15.299999999999995
vertex 79.64078493025205 22.961550108678104 0.0
vertex 82.64078493025205 22.961550108678104 0.0
endloop
endfacet
facet normal 0.0 -1.0 0.0
outer loop
vertex 79.64078493025205 22.961550108678104 0.0
vertex 82.64078493025205 22.961550108678104 15.299999999999995
vertex 79.64078493025205 22.961550108678104 15.299999999999995
endloop
endfacet
facet normal -0.8000000000000005 -0.5999999999999996 0.0
outer loop
vertex 78.14078493025205 24.9615501086781 15.299999999999995
vertex 79.64078493025205 22.961550108678104 0.0
vertex 79.64078493025205 22.961550108678104 15.299999999999995
endloop
endfacet
facet normal -0.8000000000000005 -0.5999999999999996 0.0
outer loop
vertex 79.64078493025205 22.961550108678104 0.0
vertex 78.14078493025205 24.9615501086781 15.299999999999995
vertex 78.14078493025205 24.9615501086781 0.0
endloop
endfacet
facet normal 0.0 -1.0 0.0
outer loop
vertex 25.640784930252053 22.961550108678104 15.299999999999995
vertex 22.640784930252053 22.961550108678104 0.0
vertex 25.640784930252053 22.961550108678104 0.0
endloop
endfacet
facet normal 0.0 -1.0 0.0
outer loop
vertex 22.640784930252053 22.961550108678104 0.0
vertex 25.640784930252053 22.961550108678104 15.299999999999995
vertex 22.640784930252053 22.961550108678104 15.299999999999995
endloop
endfacet
facet normal 0.8 -0.6000000000000001 -0.0
outer loop
vertex 27.140784930252053 24.9615501086781 0.0
vertex 25.640784930252053 22.961550108678104 15.299999999999995
vertex 25.640784930252053 22.961550108678104 0.0
endloop
endfacet
facet normal 0.8 -0.6000000000000001 -0.0
outer loop
vertex 25.640784930252053 22.961550108678104 15.299999999999995
vertex 27.140784930252053 24.9615501086781 0.0
vertex 27.140784930252053 24.9615501086781 15.299999999999995
endloop
endfacet
facet normal -0.0 1.0 -0.0
outer loop
vertex 27.140784930252057 38.16155010867809 15.299999999999995
vertex 44.94078493025206 38.16155010867809 0.0
vertex 27.140784930252064 38.16155010867809 0.0
endloop
endfacet
facet normal -0.0 1.0 -0.0
outer loop
vertex 44.94078493025206 38.16155010867809 0.0
vertex 27.140784930252057 38.16155010867809 15.299999999999995
vertex 44.94078493025206 38.16155010867809 15.299999999999995
endloop
endfacet
facet normal 0.0 1.0 0.0
outer loop
vertex 22.640784930252053 40.16155010867809 15.299999999999995
vertex 25.64078493025206 40.16155010867809 0.0
vertex 22.640784930252053 40.16155010867809 0.0
endloop
endfacet
facet normal 0.0 1.0 0.0
outer loop
vertex 25.64078493025206 40.16155010867809 0.0
vertex 22.640784930252053 40.16155010867809 15.299999999999995
vertex 25.640784930252053 40.16155010867809 15.299999999999995
endloop
endfacet
facet normal 0.799999999999999 0.6000000000000015 2.983317097710224e-16
outer loop
vertex 25.64078493025206 40.16155010867809 0.0
vertex 27.140784930252057 38.16155010867809 15.299999999999995
vertex 27.140784930252064 38.16155010867809 0.0
endloop
endfacet
facet normal 0.799999999999999 0.6000000000000015 2.983317097710224e-16
outer loop
vertex 27.140784930252057 38.16155010867809 15.299999999999995
vertex 25.64078493025206 40.16155010867809 0.0
vertex 25.640784930252053 40.16155010867809 15.299999999999995
endloop
endfacet
facet normal 0.0 1.0 0.0
outer loop
vertex 79.64078493025205 40.26155010867809 15.299999999999995
vertex 82.64078493025205 40.26155010867809 0.0
vertex 79.64078493025205 40.26155010867809 0.0
endloop
endfacet
facet normal 0.0 1.0 0.0
outer loop
vertex 82.64078493025205 40.26155010867809 0.0
vertex 79.64078493025205 40.26155010867809 15.299999999999995
vertex 82.64078493025205 40.26155010867809 15.299999999999995
endloop
endfacet
facet normal -0.813733471206735 0.5812381937190965 0.0
outer loop
vertex 79.64078493025205 40.26155010867809 15.299999999999995
vertex 78.14078493025205 38.16155010867809 0.0
vertex 78.14078493025205 38.16155010867809 15.299999999999995
endloop
endfacet
facet normal -0.813733471206735 0.5812381937190965 0.0
outer loop
vertex 78.14078493025205 38.16155010867809 0.0
vertex 79.64078493025205 40.26155010867809 15.299999999999995
vertex 79.64078493025205 40.26155010867809 0.0
endloop
endfacet
facet normal -0.0 1.0 -0.0
outer loop
vertex 60.34078493025204 38.16155010867809 15.299999999999995
vertex 78.14078493025205 38.16155010867809 0.0
vertex 60.34078493025204 38.16155010867809 0.0
endloop
endfacet
facet normal -0.0 1.0 -0.0
outer loop
vertex 78.14078493025205 38.16155010867809 0.0
vertex 60.34078493025204 38.16155010867809 15.299999999999995
vertex 78.14078493025205 38.16155010867809 15.299999999999995
endloop
endfacet
facet normal 0.0 1.0 0.0
outer loop
vertex 46.44078493025206 40.16155010867809 15.299999999999995
vertex 58.84078493025204 40.16155010867809 0.0
vertex 46.44078493025206 40.16155010867809 0.0
endloop
endfacet
facet normal 0.0 1.0 0.0
outer loop
vertex 58.84078493025204 40.16155010867809 0.0
vertex 46.44078493025206 40.16155010867809 15.299999999999995
vertex 58.84078493025204 40.16155010867809 15.299999999999995
endloop
endfacet
facet normal -0.8 0.6000000000000001 0.0
outer loop
vertex 46.44078493025206 40.16155010867809 15.299999999999995
vertex 44.94078493025206 38.16155010867809 0.0
vertex 44.94078493025206 38.16155010867809 15.299999999999995
endloop
endfacet
facet normal -0.8 0.6000000000000001 0.0
outer loop
vertex 44.94078493025206 38.16155010867809 0.0
vertex 46.44078493025206 40.16155010867809 15.299999999999995
vertex 46.44078493025206 40.16155010867809 0.0
endloop
endfacet
facet normal 0.8 0.6000000000000001 -0.0
outer loop
vertex 58.84078493025204 40.16155010867809 0.0
vertex 60.34078493025204 38.16155010867809 15.299999999999995
vertex 60.34078493025204 38.16155010867809 0.0
endloop
endfacet
facet normal 0.8 0.6000000000000001 -0.0
outer loop
vertex 60.34078493025204 38.16155010867809 15.299999999999995
vertex 58.84078493025204 40.16155010867809 0.0
vertex 58.84078493025204 40.16155010867809 15.299999999999995
endloop
endfacet
facet normal 0.0 -1.0 0.0
outer loop
vertex 44.94078493025206 24.9615501086781 15.299999999999995
vertex 27.140784930252053 24.9615501086781 0.0
vertex 44.94078493025206 24.9615501086781 0.0
endloop
endfacet
facet normal 0.0 -1.0 0.0
outer loop
vertex 27.140784930252053 24.9615501086781 0.0
vertex 44.94078493025206 24.9615501086781 15.299999999999995
vertex 27.140784930252053 24.9615501086781 15.299999999999995
endloop
endfacet
facet normal 0.0 -1.0 0.0
outer loop
vertex 58.84078493025204 22.961550108678104 15.299999999999995
vertex 46.44078493025206 22.961550108678104 0.0
vertex 58.84078493025204 22.961550108678104 0.0
endloop
endfacet
facet normal 0.0 -1.0 0.0
outer loop
vertex 46.44078493025206 22.961550108678104 0.0
vertex 58.84078493025204 22.961550108678104 15.299999999999995
vertex 46.44078493025206 22.961550108678104 15.299999999999995
endloop
endfacet
facet normal 0.8 -0.6000000000000001 -0.0
outer loop
vertex 60.34078493025204 24.9615501086781 0.0
vertex 58.84078493025204 22.961550108678104 15.299999999999995
vertex 58.84078493025204 22.961550108678104 0.0
endloop
endfacet
facet normal 0.8 -0.6000000000000001 -0.0
outer loop
vertex 58.84078493025204 22.961550108678104 15.299999999999995
vertex 60.34078493025204 24.9615501086781 0.0
vertex 60.34078493025204 24.9615501086781 15.299999999999995
endloop
endfacet
facet normal -0.8 -0.6000000000000001 0.0
outer loop
vertex 44.94078493025206 24.9615501086781 15.299999999999995
vertex 46.44078493025206 22.961550108678104 0.0
vertex 46.44078493025206 22.961550108678104 15.299999999999995
endloop
endfacet
facet normal -0.8 -0.6000000000000001 0.0
outer loop
vertex 46.44078493025206 22.961550108678104 0.0
vertex 44.94078493025206 24.9615501086781 15.299999999999995
vertex 44.94078493025206 24.9615501086781 0.0
endloop
endfacet
endsolid I
