solid l
facet normal 0.8944271909999162 0.44721359549995726 -0.0
outer loop
vertex 62.24078493025204 41.16155010867809 0.0
vertex 63.74078493025203 38.16155010867809 15.299999999999995
vertex 63.74078493025203 38.16155010867809 0.0
endloop
endfacet
facet normal 0.8944271909999162 0.44721359549995726 -0.0
outer loop
vertex 63.74078493025203 38.16155010867809 15.299999999999995
vertex 62.24078493025204 41.16155010867809 0.0
vertex 62.24078493025204 41.16155010867809 15.299999999999995
endloop
endfacet
facet normal 0.44721359549995804 0.8944271909999161 -0.0
outer loop
vertex 59.24078493025204 42.66155010867809 15.299999999999995
vertex 62.24078493025204 41.16155010867809 0.0
vertex 59.24078493025204 42.66155010867809 0.0
endloop
endfacet
facet normal 0.44721359549995804 0.8944271909999161 -0.0
outer loop
vertex 62.24078493025204 41.16155010867809 0.0
vertex 59.24078493025204 42.66155010867809 15.299999999999995
vertex 62.24078493025204 41.16155010867809 15.299999999999995
endloop
endfacet
facet normal -1.0 0.0 0.0
outer loop
vertex 44.04078493025205 63.46155010867806 15.299999999999995
vertex 44.04078493025205 60.46155010867807 0.0
vertex 44.04078493025205 60.46155010867807 15.299999999999995
endloop
endfacet
facet normal -1.0 0.0 0.0
outer loop
vertex 44.04078493025205 60.46155010867807 0.0
vertex 44.04078493025205 63.46155010867806 15.299999999999995
vertex 44.04078493025205 63.46155010867806 0.0
endloop
endfacet
facet normal -0.6000000000000001 -0.8 0.0
outer loop
vertex 46.040784930252045 58.961550108678075 15.299999999999995
vertex 44.04078493025205 60.46155010867807 0.0
vertex 46.040784930252045 58.961550108678075 0.0
endloop
endfacet
facet normal -0.6000000000000001 -0.8 0.0
outer loop
vertex 44.04078493025205 60.46155010867807 0.0
vertex 46.040784930252045 58.961550108678075 15.299999999999995
vertex 44.04078493025205 60.46155010867807 15.299999999999995
endloop
endfacet
facet normal 1.0 -0.0 -0.0
outer loop
vertex 59.24078493025204 58.961550108678075 0.0
vertex 59.24078493025204 42.66155010867809 15.299999999999995
vertex 59.24078493025204 42.66155010867809 0.0
endloop
endfacet
facet normal 1.0 -0.0 -0.0
outer loop
vertex 59.24078493025204 42.66155010867809 15.299999999999995
vertex 59.24078493025204 58.961550108678075 0.0
vertex 59.24078493025204 58.961550108678075 15.299999999999995
endloop
endfacet
facet normal 1.0 0.0 0.0
outer loop
vertex 61.24078493025204 63.46155010867806 0.0
vertex 61.24078493025204 60.46155010867807 15.299999999999995
vertex 61.24078493025204 60.46155010867807 0.0
endloop
endfacet
facet normal 1.0 0.0 0.0
outer loop
vertex 61.24078493025204 60.46155010867807 15.299999999999995
vertex 61.24078493025204 63.46155010867806 0.0
vertex 61.24078493025204 63.46155010867806 15.299999999999995
endloop
endfacet
facet normal 0.6000000000000001 -0.8 0.0
outer loop
vertex 61.24078493025204 60.46155010867807 15.299999999999995
vertex 59.24078493025204 58.961550108678075 0.0
vertex 61.24078493025204 60.46155010867807 0.0
endloop
endfacet
facet normal 0.6000000000000001 -0.8 0.0
outer loop
vertex 59.24078493025204 58.961550108678075 0.0
vertex 61.24078493025204 60.46155010867807 15.299999999999995
vertex 59.24078493025204 58.961550108678075 15.299999999999995
endloop
endfacet
facet normal 0.0 1.0 0.0
outer loop
vertex 81.54078493025204 40.16155010867809 15.299999999999995
vertex 84.54078493025204 40.16155010867809 0.0
vertex 81.54078493025204 40.16155010867809 0.0
endloop
endfacet
facet normal 0.0 1.0 0.0
outer loop
vertex 84.54078493025204 40.16155010867809 0.0
vertex 81.54078493025204 40.16155010867809 15.299999999999995
vertex 84.54078493025204 40.16155010867809 15.299999999999995
endloop
endfacet
facet normal -0.8 0.6000000000000001 0.0
outer loop
vertex 81.54078493025204 40.16155010867809 15.299999999999995
vertex 80.04078493025204 38.16155010867809 0.0
vertex 80.04078493025204 38.16155010867809 15.299999999999995
endloop
endfacet
facet normal -0.8 0.6000000000000001 0.0
outer loop
vertex 80.04078493025204 38.16155010867809 0.0
vertex 81.54078493025204 40.16155010867809 15.299999999999995
vertex 81.54078493025204 40.16155010867809 0.0
endloop
endfacet
facet normal 0.0 -1.0 0.0
outer loop
vertex 84.54078493025204 22.961550108678104 15.299999999999995
vertex 81.54078493025204 22.961550108678104 0.0
vertex 84.54078493025204 22.961550108678104 0.0
endloop
endfacet
facet normal 0.0 -1.0 0.0
outer loop
vertex 81.54078493025204 22.961550108678104 0.0
vertex 84.54078493025204 22.961550108678104 15.299999999999995
vertex 81.54078493025204 22.961550108678104 15.299999999999995
endloop
endfacet
facet normal -0.8000000000000005 -0.5999999999999996 0.0
outer loop
vertex 80.04078493025204 24.9615501086781 15.299999999999995
vertex 81.54078493025204 22.961550108678104 0.0
vertex 81.54078493025204 22.961550108678104 15.299999999999995
endloop
endfacet
facet normal -0.8000000000000005 -0.5999999999999996 0.0
outer loop
vertex 81.54078493025204 22.961550108678104 0.0
vertex 80.04078493025204 24.9615501086781 15.299999999999995
vertex 80.04078493025204 24.9615501086781 0.0
endloop
endfacet
facet normal 0.0 -1.0 0.0
outer loop
vertex 80.04078493025204 24.9615501086781 15.299999999999995
vertex 60.74078493025203 24.9615501086781 0.0
vertex 80.04078493025204 24.9615501086781 0.0
endloop
endfacet
facet normal 0.0 -1.0 0.0
outer loop
vertex 60.74078493025203 24.9615501086781 0.0
vertex 80.04078493025204 24.9615501086781 15.299999999999995
vertex 60.74078493025204 24.9615501086781 15.299999999999995
endloop
endfacet
facet normal 0.0 -1.0 0.0
outer loop
vertex 59.24078493025204 22.961550108678104 15.299999999999995
vertex 46.040784930252045 22.961550108678104 0.0
vertex 59.24078493025203 22.961550108678104 0.0
endloop
endfacet
facet normal 0.0 -1.0 0.0
outer loop
vertex 46.040784930252045 22.961550108678104 0.0
vertex 59.24078493025204 22.961550108678104 15.299999999999995
vertex 46.040784930252045 22.961550108678104 15.299999999999995
endloop
endfacet
facet normal 0.8000000000000005 -0.5999999999999996 -5.890138885222761e-16
outer loop
vertex 60.74078493025203 24.9615501086781 0.0
vertex 59.24078493025204 22.961550108678104 15.299999999999995
vertex 59.24078493025203 22.961550108678104 0.0
endloop
endfacet
facet normal 0.8000000000000005 -0.5999999999999996 -5.890138885222761e-16
outer loop
vertex 59.24078493025204 22.961550108678104 15.299999999999995
vertex 60.74078493025203 24.9615501086781 0.0
vertex 60.74078493025204 24.9615501086781 15.299999999999995
endloop
endfacet
facet normal -0.8000000000000003 -0.5999999999999995 0.0
outer loop
vertex 44.54078493025205 24.9615501086781 15.299999999999995
vertex 46.040784930252045 22.961550108678104 0.0
vertex 46.040784930252045 22.961550108678104 15.299999999999995
endloop
endfacet
facet normal -0.8000000000000003 -0.5999999999999995 0.0
outer loop
vertex 46.040784930252045 22.961550108678104 0.0
vertex 44.54078493025205 24.9615501086781 15.299999999999995
vertex 44.54078493025205 24.9615501086781 0.0
endloop
endfacet
facet normal -0.0 1.0 -0.0
outer loop
vertex 50.040784930252045 28.9615501086781 3.0
vertex 84.54078493025204 28.9615501086781 15.299999999999995
vertex 84.54078493025204 28.9615501086781 3.0
endloop
endfacet
facet normal -0.0 1.0 -0.0
outer loop
vertex 84.54078493025204 28.9615501086781 15.299999999999995
vertex 50.040784930252045 28.9615501086781 3.0
vertex 50.040784930252045 28.9615501086781 15.299999999999995
endloop
endfacet
facet normal -0.0 -0.0 1.0
outer loop
vertex 46.040784930252045 22.961550108678104 15.299999999999995
vertex 44.54078493025205 38.16155010867809 15.299999999999995
vertex 44.54078493025205 24.9615501086781 15.299999999999995
endloop
endfacet
facet normal -0.0 -0.0 1.0
outer loop
vertex 44.54078493025205 38.16155010867809 15.299999999999995
vertex 46.040784930252045 22.961550108678104 15.299999999999995
vertex 46.040784930252045 39.66155010867809 15.299999999999995
endloop
endfacet
facet normal -0.0 -0.0 1.0
outer loop
vertex 46.040784930252045 39.66155010867809 15.299999999999995
vertex 46.040784930252045 22.961550108678104 15.299999999999995
vertex 50.040784930252045 28.9615501086781 15.299999999999995
endloop
endfacet
facet normal -0.0 -0.0 1.0
outer loop
vertex 50.040784930252045 28.9615501086781 15.299999999999995
vertex 46.040784930252045 22.961550108678104 15.299999999999995
vertex 59.24078493025204 22.961550108678104 15.299999999999995
endloop
endfacet
facet normal -0.0 -0.0 1.0
outer loop
vertex 46.040784930252045 39.66155010867809 15.299999999999995
vertex 50.040784930252045 28.9615501086781 15.299999999999995
vertex 46.040784930252045 58.961550108678075 15.299999999999995
endloop
endfacet
facet normal -0.0 -0.0 1.0
outer loop
vertex 50.040784930252045 28.9615501086781 15.299999999999995
vertex 59.24078493025204 22.961550108678104 15.299999999999995
vertex 60.74078493025204 24.9615501086781 15.299999999999995
endloop
endfacet
facet normal -0.0 -0.0 1.0
outer loop
vertex 50.040784930252045 28.9615501086781 15.299999999999995
vertex 60.74078493025204 24.9615501086781 15.299999999999995
vertex 84.54078493025204 28.9615501086781 15.299999999999995
endloop
endfacet
facet normal -0.0 -0.0 1.0
outer loop
vertex 84.54078493025204 28.9615501086781 15.299999999999995
vertex 60.74078493025204 24.9615501086781 15.299999999999995
vertex 80.04078493025204 24.9615501086781 15.299999999999995
endloop
endfacet
facet normal -0.0 -0.0 1.0
outer loop
vertex 84.54078493025204 28.9615501086781 15.299999999999995
vertex 80.04078493025204 24.9615501086781 15.299999999999995
vertex 81.54078493025204 22.961550108678104 15.299999999999995
endloop
endfacet
facet normal -0.0 -0.0 1.0
outer loop
vertex 84.54078493025204 28.9615501086781 15.299999999999995
vertex 81.54078493025204 22.961550108678104 15.299999999999995
vertex 84.54078493025204 22.961550108678104 15.299999999999995
endloop
endfacet
facet normal -0.0 -0.0 1.0
outer loop
vertex 46.040784930252045 58.961550108678075 15.299999999999995
vertex 44.04078493025205 63.46155010867806 15.299999999999995
vertex 44.04078493025205 60.46155010867807 15.299999999999995
endloop
endfacet
facet normal -0.0 -0.0 1.0
outer loop
vertex 44.04078493025205 63.46155010867806 15.299999999999995
vertex 46.040784930252045 58.961550108678075 15.299999999999995
vertex 50.040784930252045 63.46155010867806 15.299999999999995
endloop
endfacet
facet normal -0.0 -0.0 1.0
outer loop
vertex 50.040784930252045 63.46155010867806 15.299999999999995
vertex 46.040784930252045 58.961550108678075 15.299999999999995
vertex 50.040784930252045 28.9615501086781 15.299999999999995
endloop
endfacet
facet normal -1.0 0.0 0.0
outer loop
vertex 46.040784930252045 58.961550108678075 15.299999999999995
vertex 46.040784930252045 39.66155010867809 -4.838815986520325e-16
vertex 46.040784930252045 39.66155010867809 15.299999999999995
endloop
endfacet
facet normal -1.0 0.0 0.0
outer loop
vertex 46.040784930252045 39.66155010867809 -4.838815986520325e-16
vertex 46.040784930252045 58.961550108678075 15.299999999999995
vertex 46.040784930252045 58.961550108678075 0.0
endloop
endfacet
facet normal 1.9541638750786905e-18 7.674618864889237e-19 -1.0
outer loop
vertex 46.040784930252045 39.66155010867809 -4.838815986520325e-16
vertex 44.54078493025205 24.9615501086781 0.0
vertex 44.54078493025205 38.16155010867809 0.0
endloop
endfacet
facet normal 1.9541638750786905e-18 7.674618864889237e-19 -1.0
outer loop
vertex 44.54078493025205 24.9615501086781 0.0
vertex 46.040784930252045 39.66155010867809 -4.838815986520325e-16
vertex 46.040784930252045 22.961550108678104 0.0
endloop
endfacet
facet normal 1.9541638750786905e-18 7.674618864889237e-19 -1.0
outer loop
vertex 61.24078493025204 63.46155010867806 0.0
vertex 44.04078493025205 60.46155010867807 0.0
vertex 44.04078493025205 63.46155010867806 0.0
endloop
endfacet
facet normal 1.9541638750786905e-18 7.674618864889237e-19 -1.0
outer loop
vertex 44.04078493025205 60.46155010867807 0.0
vertex 61.24078493025204 63.46155010867806 0.0
vertex 46.040784930252045 58.961550108678075 0.0
endloop
endfacet
facet normal 1.9541638750786905e-18 7.674618864889237e-19 -1.0
outer loop
vertex 46.040784930252045 58.961550108678075 0.0
vertex 61.24078493025204 63.46155010867806 0.0
vertex 46.040784930252045 39.66155010867809 -4.838815986520325e-16
endloop
endfacet
facet normal 1.9541638750786905e-18 7.674618864889237e-19 -1.0
outer loop
vertex 46.040784930252045 39.66155010867809 -4.838815986520325e-16
vertex 61.24078493025204 63.46155010867806 0.0
vertex 59.24078493025204 58.961550108678075 0.0
endloop
endfacet
facet normal 1.9541638750786905e-18 7.674618864889237e-19 -1.0
outer loop
vertex 46.040784930252045 39.66155010867809 -4.838815986520325e-16
vertex 59.24078493025204 58.961550108678075 0.0
vertex 46.040784930252045 22.961550108678104 0.0
endloop
endfacet
facet normal 1.9541638750786905e-18 7.674618864889237e-19 -1.0
outer loop
vertex 46.040784930252045 22.961550108678104 0.0
vertex 59.24078493025204 58.961550108678075 0.0
vertex 59.24078493025203 22.961550108678104 0.0
endloop
endfacet
facet normal 1.9541638750786905e-18 7.674618864889237e-19 -1.0
outer loop
vertex 59.24078493025204 58.961550108678075 0.0
vertex 61.24078493025204 63.46155010867806 0.0
vertex 61.24078493025204 60.46155010867807 0.0
endloop
endfacet
facet normal 1.9541638750786905e-18 7.674618864889237e-19 -1.0
outer loop
vertex 59.24078493025203 22.961550108678104 0.0
vertex 59.24078493025204 42.66155010867809 0.0
vertex 60.74078493025203 24.9615501086781 0.0
endloop
endfacet
facet normal 1.9541638750786905e-18 7.674618864889237e-19 -1.0
outer loop
vertex 59.24078493025204 42.66155010867809 0.0
vertex 59.24078493025203 22.961550108678104 0.0
vertex 59.24078493025204 58.961550108678075 0.0
endloop
endfacet
facet normal 1.9541638750786905e-18 7.674618864889237e-19 -1.0
outer loop
vertex 60.74078493025203 24.9615501086781 0.0
vertex 59.24078493025204 42.66155010867809 0.0
vertex 62.24078493025204 41.16155010867809 0.0
endloop
endfacet
facet normal 1.9541638750786905e-18 7.674618864889237e-19 -1.0
outer loop
vertex 60.74078493025203 24.9615501086781 0.0
vertex 62.24078493025204 41.16155010867809 0.0
vertex 63.74078493025203 38.16155010867809 0.0
endloop
endfacet
facet normal 1.9541638750786905e-18 7.674618864889237e-19 -1.0
outer loop
vertex 60.74078493025203 24.9615501086781 0.0
vertex 63.74078493025203 38.16155010867809 0.0
vertex 80.04078493025204 24.9615501086781 0.0
endloop
endfacet
facet normal 1.9541638750786905e-18 7.674618864889237e-19 -1.0
outer loop
vertex 80.04078493025204 24.9615501086781 0.0
vertex 63.74078493025203 38.16155010867809 0.0
vertex 80.04078493025204 38.16155010867809 0.0
endloop
endfacet
facet normal 1.9541638750786905e-18 7.674618864889237e-19 -1.0
outer loop
vertex 80.04078493025204 24.9615501086781 0.0
vertex 80.04078493025204 38.16155010867809 0.0
vertex 81.54078493025204 40.16155010867809 0.0
endloop
endfacet
facet normal 1.9541638750786905e-18 7.674618864889237e-19 -1.0
outer loop
vertex 80.04078493025204 24.9615501086781 0.0
vertex 81.54078493025204 40.16155010867809 0.0
vertex 81.54078493025204 22.961550108678104 0.0
endloop
endfacet
facet normal 1.9541638750786905e-18 7.674618864889237e-19 -1.0
outer loop
vertex 81.54078493025204 22.961550108678104 0.0
vertex 81.54078493025204 40.16155010867809 0.0
vertex 84.54078493025204 40.16155010867809 0.0
endloop
endfacet
facet normal 1.9541638750786905e-18 7.674618864889237e-19 -1.0
outer loop
vertex 81.54078493025204 22.961550108678104 0.0
vertex 84.54078493025204 40.16155010867809 0.0
vertex 84.54078493025204 22.961550108678104 0.0
endloop
endfacet
facet normal -0.7071067811865476 0.7071067811865476 -0.0
outer loop
vertex 46.040784930252045 39.66155010867809 15.299999999999995
vertex 44.54078493025205 38.16155010867809 0.0
vertex 44.54078493025205 38.16155010867809 15.299999999999995
endloop
endfacet
facet normal -0.7071067811865476 0.7071067811865476 -0.0
outer loop
vertex 44.54078493025205 38.16155010867809 0.0
vertex 46.040784930252045 39.66155010867809 15.299999999999995
vertex 46.040784930252045 39.66155010867809 -4.838815986520325e-16
endloop
endfacet
facet normal -1.0 0.0 0.0
outer loop
vertex 44.54078493025205 38.16155010867809 15.299999999999995
vertex 44.54078493025205 24.9615501086781 0.0
vertex 44.54078493025205 24.9615501086781 15.299999999999995
endloop
endfacet
facet normal -1.0 0.0 0.0
outer loop
vertex 44.54078493025205 24.9615501086781 0.0
vertex 44.54078493025205 38.16155010867809 15.299999999999995
vertex 44.54078493025205 38.16155010867809 0.0
endloop
endfacet
facet normal 1.0 -0.0 -0.0
outer loop
vertex 50.040784930252045 63.46155010867806 3.0
vertex 50.040784930252045 28.9615501086781 15.299999999999995
vertex 50.040784930252045 28.9615501086781 3.0
endloop
endfacet
facet normal 1.0 -0.0 -0.0
outer loop
vertex 50.040784930252045 28.9615501086781 15.299999999999995
vertex 50.040784930252045 63.46155010867806 3.0
vertex 50.040784930252045 63.46155010867806 15.299999999999995
endloop
endfacet
facet normal -1.0 0.0 0.0
outer loop
vertex 55.240784930252055 63.46155010867806 15.299999999999995
vertex 55.240784930252055 34.16155010867809 3.0
vertex 55.240784930252055 34.16155010867809 15.299999999999995
endloop
endfacet
facet normal -1.0 0.0 0.0
outer loop
vertex 55.240784930252055 34.16155010867809 3.0
vertex 55.240784930252055 63.46155010867806 15.299999999999995
vertex 55.240784930252055 63.46155010867806 3.0
endloop
endfacet
facet normal 0.0 -1.0 0.0
outer loop
vertex 84.54078493025204 34.16155010867809 15.299999999999995
vertex 55.240784930252055 34.16155010867809 3.0
vertex 84.54078493025204 34.16155010867809 3.0
endloop
endfacet
facet normal 0.0 -1.0 0.0
outer loop
vertex 55.240784930252055 34.16155010867809 3.0
vertex 84.54078493025204 34.16155010867809 15.299999999999995
vertex 55.240784930252055 34.16155010867809 15.299999999999995
endloop
endfacet
facet normal 1.0 0.0 0.0
outer loop
vertex 84.54078493025204 22.961550108678104 0.0
vertex 84.54078493025204 28.9615501086781 3.0
vertex 84.54078493025204 22.961550108678104 15.299999999999995
endloop
endfacet
facet normal 1.0 0.0 0.0
outer loop
vertex 84.54078493025204 28.9615501086781 3.0
vertex 84.54078493025204 22.961550108678104 0.0
vertex 84.54078493025204 40.16155010867809 0.0
endloop
endfacet
facet normal 1.0 0.0 0.0
outer loop
vertex 84.54078493025204 28.9615501086781 3.0
vertex 84.54078493025204 40.16155010867809 0.0
vertex 84.54078493025204 34.16155010867809 3.0
endloop
endfacet
facet normal 1.0 0.0 0.0
outer loop
vertex 84.54078493025204 34.16155010867809 3.0
vertex 84.54078493025204 40.16155010867809 0.0
vertex 84.54078493025204 34.16155010867809 15.299999999999995
endloop
endfacet
facet normal 1.0 0.0 0.0
outer loop
vertex 84.54078493025204 34.16155010867809 15.299999999999995
vertex 84.54078493025204 40.16155010867809 0.0
vertex 84.54078493025204 40.16155010867809 15.299999999999995
endloop
endfacet
facet normal 1.0 0.0 0.0
outer loop
vertex 84.54078493025204 28.9615501086781 15.299999999999995
vertex 84.54078493025204 22.961550108678104 15.299999999999995
vertex 84.54078493025204 28.9615501086781 3.0
endloop
endfacet
facet normal -0.0 1.0 -0.0
outer loop
vertex 63.74078493025203 38.16155010867809 15.299999999999995
vertex 80.04078493025204 38.16155010867809 0.0
vertex 63.74078493025203 38.16155010867809 0.0
endloop
endfacet
facet normal -0.0 1.0 -0.0
outer loop
vertex 80.04078493025204 38.16155010867809 0.0
vertex 63.74078493025203 38.16155010867809 15.299999999999995
vertex 80.04078493025204 38.16155010867809 15.299999999999995
endloop
endfacet
facet normal 1.0465364836480845e-17 -4.743582996975337e-19 1.0
outer loop
vertex 50.040784930252045 28.9615501086781 3.0
vertex 55.240784930252055 34.16155010867809 3.0
vertex 50.040784930252045 63.46155010867806 3.0
endloop
endfacet
facet normal 1.0465364836480845e-17 -4.743582996975337e-19 1.0
outer loop
vertex 55.240784930252055 34.16155010867809 3.0
vertex 50.040784930252045 28.9615501086781 3.0
vertex 84.54078493025204 28.9615501086781 3.0
endloop
endfacet
facet normal 1.0465364836480845e-17 -4.743582996975337e-19 1.0
outer loop
vertex 55.240784930252055 34.16155010867809 3.0
vertex 84.54078493025204 28.9615501086781 3.0
vertex 84.54078493025204 34.16155010867809 3.0
endloop
endfacet
facet normal 1.0465364836480845e-17 -4.743582996975337e-19 1.0
outer loop
vertex 55.240784930252055 63.46155010867806 3.0
vertex 50.040784930252045 63.46155010867806 3.0
vertex 55.240784930252055 34.16155010867809 3.0
endloop
endfacet
facet normal -0.0 -0.0 1.0
outer loop
vertex 55.240784930252055 34.16155010867809 15.299999999999995
vertex 59.24078493025204 42.66155010867809 15.299999999999995
vertex 55.240784930252055 63.46155010867806 15.299999999999995
endloop
endfacet
facet normal -0.0 -0.0 1.0
outer loop
vertex 59.24078493025204 42.66155010867809 15.299999999999995
vertex 55.240784930252055 34.16155010867809 15.299999999999995
vertex 63.74078493025203 38.16155010867809 15.299999999999995
endloop
endfacet
facet normal -0.0 -0.0 1.0
outer loop
vertex 63.74078493025203 38.16155010867809 15.299999999999995
vertex 55.240784930252055 34.16155010867809 15.299999999999995
vertex 84.54078493025204 34.16155010867809 15.299999999999995
endloop
endfacet
facet normal -0.0 -0.0 1.0
outer loop
vertex 59.24078493025204 42.66155010867809 15.299999999999995
vertex 63.74078493025203 38.16155010867809 15.299999999999995
vertex 62.24078493025204 41.16155010867809 15.299999999999995
endloop
endfacet
facet normal -0.0 -0.0 1.0
outer loop
vertex 63.74078493025203 38.16155010867809 15.299999999999995
vertex 84.54078493025204 34.16155010867809 15.299999999999995
vertex 80.04078493025204 38.16155010867809 15.299999999999995
endloop
endfacet
facet normal -0.0 -0.0 1.0
outer loop
vertex 80.04078493025204 38.16155010867809 15.299999999999995
vertex 84.54078493025204 34.16155010867809 15.299999999999995
vertex 81.54078493025204 40.16155010867809 15.299999999999995
endloop
endfacet
facet normal -0.0 -0.0 1.0
outer loop
vertex 81.54078493025204 40.16155010867809 15.299999999999995
vertex 84.54078493025204 34.16155010867809 15.299999999999995
vertex 84.54078493025204 40.16155010867809 15.299999999999995
endloop
endfacet
facet normal -0.0 -0.0 1.0
outer loop
vertex 55.240784930252055 63.46155010867806 15.299999999999995
vertex 59.24078493025204 58.961550108678075 15.299999999999995
vertex 61.24078493025204 63.46155010867806 15.299999999999995
endloop
endfacet
facet normal -0.0 -0.0 1.0
outer loop
vertex 59.24078493025204 58.961550108678075 15.299999999999995
vertex 55.240784930252055 63.46155010867806 15.299999999999995
vertex 59.24078493025204 42.66155010867809 15.299999999999995
endloop
endfacet
facet normal -0.0 -0.0 1.0
outer loop
vertex 61.24078493025204 63.46155010867806 15.299999999999995
vertex 59.24078493025204 58.961550108678075 15.299999999999995
vertex 61.24078493025204 60.46155010867807 15.299999999999995
endloop
endfacet
facet normal 0.0 1.0 0.0
outer loop
vertex 44.04078493025205 63.46155010867806 0.0
vertex 50.040784930252045 63.46155010867806 3.0
vertex 61.24078493025204 63.46155010867806 0.0
endloop
endfacet
facet normal 0.0 1.0 0.0
outer loop
vertex 50.040784930252045 63.46155010867806 3.0
vertex 44.04078493025205 63.46155010867806 0.0
vertex 44.04078493025205 63.46155010867806 15.299999999999995
endloop
endfacet
facet normal 0.0 1.0 0.0
outer loop
vertex 50.040784930252045 63.46155010867806 3.0
vertex 44.04078493025205 63.46155010867806 15.299999999999995
vertex 50.040784930252045 63.46155010867806 15.299999999999995
endloop
endfacet
facet normal 0.0 1.0 0.0
outer loop
vertex 61.24078493025204 63.46155010867806 0.0
vertex 55.240784930252055 63.46155010867806 3.0
vertex 61.24078493025204 63.46155010867806 15.299999999999995
endloop
endfacet
facet normal 0.0 1.0 0.0
outer loop
vertex 55.240784930252055 63.46155010867806 3.0
vertex 61.24078493025204 63.46155010867806 0.0
vertex 50.040784930252045 63.46155010867806 3.0
endloop
endfacet
facet normal 0.0 1.0 0.0
outer loop
vertex 61.24078493025204 63.46155010867806 15.299999999999995
vertex 55.240784930252055 63.46155010867806 3.0
vertex 55.240784930252055 63.46155010867806 15.299999999999995
endloop
endfacet
endsolid l
