solid croix
facet normal 1.745153301974212e-18 6.501184681770995e-18 -1.0
outer loop
vertex 61.24078493025204 63.46155010867806 0.0
vertex 44.04078493025205 60.46155010867806 0.0
vertex 44.04078493025205 63.46155010867806 0.0
endloop
endfacet
facet normal 1.745153301974212e-18 6.501184681770995e-18 -1.0
outer loop
vertex 44.04078493025205 60.46155010867806 0.0
vertex 61.24078493025204 63.46155010867806 0.0
vertex 46.040784930252045 58.96155010867806 0.0
endloop
endfacet
facet normal 1.745153301974212e-18 6.501184681770995e-18 -1.0
outer loop
vertex 46.040784930252045 58.96155010867806 0.0
vertex 61.24078493025204 63.46155010867806 0.0
vertex 46.040784930252045 42.66155010867809 0.0
endloop
endfacet
facet normal 1.745153301974212e-18 6.501184681770995e-18 -1.0
outer loop
vertex 46.040784930252045 42.66155010867809 0.0
vertex 61.24078493025204 63.46155010867806 0.0
vertex 59.24078493025204 58.961550108678075 0.0
endloop
endfacet
facet normal 1.745153301974212e-18 6.501184681770995e-18 -1.0
outer loop
vertex 46.040784930252045 42.66155010867809 0.0
vertex 59.24078493025204 58.961550108678075 0.0
vertex 46.040784930252045 20.461550108678107 0.0
endloop
endfacet
facet normal 1.745153301974212e-18 6.501184681770995e-18 -1.0
outer loop
vertex 46.040784930252045 20.461550108678107 0.0
vertex 59.24078493025204 58.961550108678075 0.0
vertex 46.040784930252045 4.261550108678097 -1.4099832412739487e-15
endloop
endfacet
facet normal 1.745153301974212e-18 6.501184681770995e-18 -1.0
outer loop
vertex 59.24078493025204 58.961550108678075 0.0
vertex 61.24078493025204 63.46155010867806 0.0
vertex 61.24078493025204 60.46155010867807 0.0
endloop
endfacet
facet normal 1.745153301974212e-18 6.501184681770995e-18 -1.0
outer loop
vertex 62.24078493025205 41.161550108678085 0.0
vertex 59.24078493025204 20.4615501086781 0.0
vertex 59.24078493025204 42.661550108678085 0.0
endloop
endfacet
facet normal 1.745153301974212e-18 6.501184681770995e-18 -1.0
outer loop
vertex 59.24078493025204 20.4615501086781 0.0
vertex 62.24078493025205 41.161550108678085 0.0
vertex 62.24078493025204 21.9615501086781 0.0
endloop
endfacet
facet normal 1.745153301974212e-18 6.501184681770995e-18 -1.0
outer loop
vertex 62.24078493025204 21.9615501086781 0.0
vertex 62.24078493025205 41.161550108678085 0.0
vertex 63.74078493025203 24.9615501086781 0.0
endloop
endfacet
facet normal 1.745153301974212e-18 6.501184681770995e-18 -1.0
outer loop
vertex 63.74078493025203 24.9615501086781 0.0
vertex 62.24078493025205 41.161550108678085 0.0
vertex 63.74078493025205 38.16155010867809 0.0
endloop
endfacet
facet normal 1.745153301974212e-18 6.501184681770995e-18 -1.0
outer loop
vertex 63.74078493025203 24.9615501086781 0.0
vertex 63.74078493025205 38.16155010867809 0.0
vertex 80.04078493025204 24.9615501086781 0.0
endloop
endfacet
facet normal 1.745153301974212e-18 6.501184681770995e-18 -1.0
outer loop
vertex 80.04078493025204 24.9615501086781 0.0
vertex 63.74078493025205 38.16155010867809 0.0
vertex 80.04078493025204 38.16155010867809 0.0
endloop
endfacet
facet normal 1.745153301974212e-18 6.501184681770995e-18 -1.0
outer loop
vertex 80.04078493025204 24.9615501086781 0.0
vertex 80.04078493025204 38.16155010867809 0.0
vertex 81.54078493025203 40.16155010867809 0.0
endloop
endfacet
facet normal 1.745153301974212e-18 6.501184681770995e-18 -1.0
outer loop
vertex 80.04078493025204 24.9615501086781 0.0
vertex 81.54078493025203 40.16155010867809 0.0
vertex 81.54078493025203 22.961550108678104 0.0
endloop
endfacet
facet normal 1.745153301974212e-18 6.501184681770995e-18 -1.0
outer loop
vertex 81.54078493025203 22.961550108678104 0.0
vertex 81.54078493025203 40.16155010867809 0.0
vertex 84.54078493025204 40.16155010867809 0.0
endloop
endfacet
facet normal 1.745153301974212e-18 6.501184681770995e-18 -1.0
outer loop
vertex 81.54078493025203 22.961550108678104 0.0
vertex 84.54078493025204 40.16155010867809 0.0
vertex 84.54078493025204 22.961550108678104 0.0
endloop
endfacet
facet normal 1.745153301974212e-18 6.501184681770995e-18 -1.0
outer loop
vertex 46.040784930252045 4.261550108678097 -1.4099832412739487e-15
vertex 44.04078493025205 -0.23844989132190084 0.0
vertex 44.04078493025205 2.7615501086780965 -1.4099832412739487e-15
endloop
endfacet
facet normal 1.745153301974212e-18 6.501184681770995e-18 -1.0
outer loop
vertex 44.04078493025205 -0.23844989132190084 0.0
vertex 46.040784930252045 4.261550108678097 -1.4099832412739487e-15
vertex 61.24078493025204 -0.23844989132190084 0.0
endloop
endfacet
facet normal 1.745153301974212e-18 6.501184681770995e-18 -1.0
outer loop
vertex 61.24078493025204 -0.23844989132190084 0.0
vertex 46.040784930252045 4.261550108678097 -1.4099832412739487e-15
vertex 59.24078493025204 4.361550108678101 0.0
endloop
endfacet
facet normal 1.745153301974212e-18 6.501184681770995e-18 -1.0
outer loop
vertex 59.24078493025204 4.361550108678101 0.0
vertex 46.040784930252045 4.261550108678097 -1.4099832412739487e-15
vertex 59.24078493025204 58.961550108678075 0.0
endloop
endfacet
facet normal 1.745153301974212e-18 6.501184681770995e-18 -1.0
outer loop
vertex 59.24078493025204 4.361550108678101 0.0
vertex 59.24078493025204 58.961550108678075 0.0
vertex 59.24078493025204 42.661550108678085 0.0
endloop
endfacet
facet normal 1.745153301974212e-18 6.501184681770995e-18 -1.0
outer loop
vertex 59.24078493025204 4.361550108678101 0.0
vertex 59.24078493025204 42.661550108678085 0.0
vertex 59.24078493025204 20.4615501086781 0.0
endloop
endfacet
facet normal 1.745153301974212e-18 6.501184681770995e-18 -1.0
outer loop
vertex 61.24078493025204 -0.23844989132190084 0.0
vertex 59.24078493025204 4.361550108678101 0.0
vertex 61.24078493025204 2.7615501086780996 0.0
endloop
endfacet
facet normal 1.745153301974212e-18 6.501184681770995e-18 -1.0
outer loop
vertex 23.640784930252057 40.16155010867809 0.0
vertex 20.640784930252057 22.961550108678104 0.0
vertex 20.640784930252057 40.16155010867809 0.0
endloop
endfacet
facet normal 1.745153301974212e-18 6.501184681770995e-18 -1.0
outer loop
vertex 20.640784930252057 22.961550108678104 0.0
vertex 23.640784930252057 40.16155010867809 0.0
vertex 23.640784930252057 22.961550108678104 0.0
endloop
endfacet
facet normal 1.745153301974212e-18 6.501184681770995e-18 -1.0
outer loop
vertex 23.640784930252057 22.961550108678104 0.0
vertex 23.640784930252057 40.16155010867809 0.0
vertex 25.140784930252057 38.16155010867809 0.0
endloop
endfacet
facet normal 1.745153301974212e-18 6.501184681770995e-18 -1.0
outer loop
vertex 23.640784930252057 22.961550108678104 0.0
vertex 25.140784930252057 38.16155010867809 0.0
vertex 25.140784930252057 24.9615501086781 0.0
endloop
endfacet
facet normal 1.745153301974212e-18 6.501184681770995e-18 -1.0
outer loop
vertex 25.140784930252057 24.9615501086781 0.0
vertex 25.140784930252057 38.16155010867809 0.0
vertex 41.54078493025205 38.16155010867809 0.0
endloop
endfacet
facet normal 1.745153301974212e-18 6.501184681770995e-18 -1.0
outer loop
vertex 25.140784930252057 24.9615501086781 0.0
vertex 41.54078493025205 38.16155010867809 0.0
vertex 41.540784930252045 24.9615501086781 0.0
endloop
endfacet
facet normal 1.745153301974212e-18 6.501184681770995e-18 -1.0
outer loop
vertex 41.540784930252045 24.9615501086781 0.0
vertex 41.54078493025205 38.16155010867809 0.0
vertex 43.040784930252045 21.961550108678107 0.0
endloop
endfacet
facet normal 1.745153301974212e-18 6.501184681770995e-18 -1.0
outer loop
vertex 43.040784930252045 21.961550108678107 0.0
vertex 41.54078493025205 38.16155010867809 0.0
vertex 43.04078493025205 41.16155010867809 0.0
endloop
endfacet
facet normal 1.745153301974212e-18 6.501184681770995e-18 -1.0
outer loop
vertex 43.040784930252045 21.961550108678107 0.0
vertex 43.04078493025205 41.16155010867809 0.0
vertex 46.040784930252045 20.461550108678107 0.0
endloop
endfacet
facet normal 1.745153301974212e-18 6.501184681770995e-18 -1.0
outer loop
vertex 46.040784930252045 20.461550108678107 0.0
vertex 43.04078493025205 41.16155010867809 0.0
vertex 46.040784930252045 42.66155010867809 0.0
endloop
endfacet
facet normal 1.0 0.0 0.0
outer loop
vertex 84.54078493025204 22.961550108678104 0.0
vertex 84.54078493025204 28.9615501086781 3.0
vertex 84.54078493025204 22.961550108678104 15.299999999999995
endloop
endfacet
facet normal 1.0 0.0 0.0
outer loop
vertex 84.54078493025204 28.9615501086781 3.0
vertex 84.54078493025204 22.961550108678104 0.0
vertex 84.54078493025204 40.16155010867809 0.0
endloop
endfacet
facet normal 1.0 0.0 0.0
outer loop
vertex 84.54078493025204 28.9615501086781 3.0
vertex 84.54078493025204 40.16155010867809 0.0
vertex 84.54078493025204 34.16155010867809 3.0
endloop
endfacet
facet normal 1.0 0.0 0.0
outer loop
vertex 84.54078493025204 34.16155010867809 3.0
vertex 84.54078493025204 40.16155010867809 0.0
vertex 84.54078493025204 34.16155010867809 15.299999999999995
endloop
endfacet
facet normal 1.0 0.0 0.0
outer loop
vertex 84.54078493025204 34.16155010867809 15.299999999999995
vertex 84.54078493025204 40.16155010867809 0.0
vertex 84.54078493025204 40.16155010867809 15.299999999999995
endloop
endfacet
facet normal 1.0 0.0 0.0
outer loop
vertex 84.54078493025204 28.9615501086781 15.299999999999995
vertex 84.54078493025204 22.961550108678104 15.299999999999995
vertex 84.54078493025204 28.9615501086781 3.0
endloop
endfacet
facet normal -1.0 0.0 0.0
outer loop
vertex 20.640784930252057 40.16155010867809 15.299999999999995
vertex 20.640784930252057 34.16155010867809 3.0
vertex 20.640784930252057 34.16155010867809 15.299999999999995
endloop
endfacet
facet normal -1.0 0.0 0.0
outer loop
vertex 20.640784930252057 28.9615501086781 15.299999999999995
vertex 20.640784930252057 22.961550108678104 0.0
vertex 20.640784930252057 22.961550108678104 15.299999999999995
endloop
endfacet
facet normal -1.0 0.0 0.0
outer loop
vertex 20.640784930252057 22.961550108678104 0.0
vertex 20.640784930252057 28.9615501086781 15.299999999999995
vertex 20.640784930252057 28.9615501086781 3.0
endloop
endfacet
facet normal -1.0 0.0 0.0
outer loop
vertex 20.640784930252057 22.961550108678104 0.0
vertex 20.640784930252057 28.9615501086781 3.0
vertex 20.640784930252057 40.16155010867809 0.0
endloop
endfacet
facet normal -1.0 0.0 0.0
outer loop
vertex 20.640784930252057 40.16155010867809 0.0
vertex 20.640784930252057 28.9615501086781 3.0
vertex 20.640784930252057 34.16155010867809 3.0
endloop
endfacet
facet normal -1.0 0.0 0.0
outer loop
vertex 20.640784930252057 40.16155010867809 0.0
vertex 20.640784930252057 34.16155010867809 3.0
vertex 20.640784930252057 40.16155010867809 15.299999999999995
endloop
endfacet
facet normal -1.2124019685935028e-20 -2.3300942651138036e-19 1.0
outer loop
vertex 84.54078493025204 28.9615501086781 3.0
vertex 55.240784930252055 34.16155010867809 3.0
vertex 55.240784930252055 28.9615501086781 3.0
endloop
endfacet
facet normal -1.2124019685935028e-20 -2.3300942651138036e-19 1.0
outer loop
vertex 55.240784930252055 34.16155010867809 3.0
vertex 84.54078493025204 28.9615501086781 3.0
vertex 84.54078493025204 34.16155010867809 3.0
endloop
endfacet
facet normal -1.2124019685935028e-20 -2.3300942651138036e-19 1.0
outer loop
vertex 55.240784930252055 -0.23844989132190084 3.0
vertex 50.040784930252045 28.9615501086781 3.0
vertex 50.040784930252045 -0.23844989132190084 3.0
endloop
endfacet
facet normal -1.2124019685935028e-20 -2.3300942651138036e-19 1.0
outer loop
vertex 50.040784930252045 28.9615501086781 3.0
vertex 55.240784930252055 -0.23844989132190084 3.0
vertex 50.040784930252045 34.16155010867809 3.0
endloop
endfacet
facet normal -1.2124019685935028e-20 -2.3300942651138036e-19 1.0
outer loop
vertex 50.040784930252045 34.16155010867809 3.0
vertex 55.240784930252055 -0.23844989132190084 3.0
vertex 50.040784930252045 63.46155010867806 3.0
endloop
endfacet
facet normal -1.2124019685935028e-20 -2.3300942651138036e-19 1.0
outer loop
vertex 50.040784930252045 63.46155010867806 3.0
vertex 55.240784930252055 -0.23844989132190084 3.0
vertex 55.240784930252055 63.46155010867806 3.0
endloop
endfacet
facet normal -1.2124019685935028e-20 -2.3300942651138036e-19 1.0
outer loop
vertex 55.240784930252055 63.46155010867806 3.0
vertex 55.240784930252055 -0.23844989132190084 3.0
vertex 55.240784930252055 28.9615501086781 3.0
endloop
endfacet
facet normal -1.2124019685935028e-20 -2.3300942651138036e-19 1.0
outer loop
vertex 55.240784930252055 63.46155010867806 3.0
vertex 55.240784930252055 28.9615501086781 3.0
vertex 55.240784930252055 34.16155010867809 3.0
endloop
endfacet
facet normal -1.2124019685935028e-20 -2.3300942651138036e-19 1.0
outer loop
vertex 50.040784930252045 28.9615501086781 3.0
vertex 20.640784930252057 34.16155010867809 3.0
vertex 20.640784930252057 28.9615501086781 3.0
endloop
endfacet
facet normal -1.2124019685935028e-20 -2.3300942651138036e-19 1.0
outer loop
vertex 20.640784930252057 34.16155010867809 3.0
vertex 50.040784930252045 28.9615501086781 3.0
vertex 50.040784930252045 34.16155010867809 3.0
endloop
endfacet
facet normal -0.0 1.0 -0.0
outer loop
vertex 55.240784930252055 28.9615501086781 3.0
vertex 84.54078493025204 28.9615501086781 15.299999999999995
vertex 84.54078493025204 28.9615501086781 3.0
endloop
endfacet
facet normal -0.0 1.0 -0.0
outer loop
vertex 84.54078493025204 28.9615501086781 15.299999999999995
vertex 55.240784930252055 28.9615501086781 3.0
vertex 55.240784930252055 28.9615501086781 15.299999999999995
endloop
endfacet
facet normal -0.0 -0.0 1.0
outer loop
vertex 55.240784930252055 34.16155010867809 15.299999999999995
vertex 59.24078493025204 42.661550108678085 15.299999999999995
vertex 55.240784930252055 63.46155010867806 15.299999999999995
endloop
endfacet
facet normal -0.0 -0.0 1.0
outer loop
vertex 59.24078493025204 42.661550108678085 15.299999999999995
vertex 55.240784930252055 34.16155010867809 15.299999999999995
vertex 63.74078493025203 38.16155010867809 15.299999999999995
endloop
endfacet
facet normal -0.0 -0.0 1.0
outer loop
vertex 63.74078493025203 38.16155010867809 15.299999999999995
vertex 55.240784930252055 34.16155010867809 15.299999999999995
vertex 84.54078493025204 34.16155010867809 15.299999999999995
endloop
endfacet
facet normal -0.0 -0.0 1.0
outer loop
vertex 59.24078493025204 42.661550108678085 15.299999999999995
vertex 63.74078493025203 38.16155010867809 15.299999999999995
vertex 62.24078493025204 41.161550108678085 15.299999999999995
endloop
endfacet
facet normal -0.0 -0.0 1.0
outer loop
vertex 63.74078493025203 38.16155010867809 15.299999999999995
vertex 84.54078493025204 34.16155010867809 15.299999999999995
vertex 80.04078493025204 38.16155010867809 15.299999999999995
endloop
endfacet
facet normal -0.0 -0.0 1.0
outer loop
vertex 80.04078493025204 38.16155010867809 15.299999999999995
vertex 84.54078493025204 34.16155010867809 15.299999999999995
vertex 81.54078493025203 40.16155010867809 15.299999999999995
endloop
endfacet
facet normal -0.0 -0.0 1.0
outer loop
vertex 81.54078493025203 40.16155010867809 15.299999999999995
vertex 84.54078493025204 34.16155010867809 15.299999999999995
vertex 84.54078493025204 40.16155010867809 15.299999999999995
endloop
endfacet
facet normal -0.0 -0.0 1.0
outer loop
vertex 55.240784930252055 63.46155010867806 15.299999999999995
vertex 59.24078493025204 58.961550108678075 15.299999999999995
vertex 61.24078493025204 63.46155010867806 15.299999999999995
endloop
endfacet
facet normal -0.0 -0.0 1.0
outer loop
vertex 59.24078493025204 58.961550108678075 15.299999999999995
vertex 55.240784930252055 63.46155010867806 15.299999999999995
vertex 59.24078493025204 42.661550108678085 15.299999999999995
endloop
endfacet
facet normal -0.0 -0.0 1.0
outer loop
vertex 61.24078493025204 63.46155010867806 15.299999999999995
vertex 59.24078493025204 58.961550108678075 15.299999999999995
vertex 61.24078493025204 60.46155010867807 15.299999999999995
endloop
endfacet
facet normal 0.0 -1.0 0.0
outer loop
vertex 50.040784930252045 34.16155010867809 3.0
vertex 20.640784930252057 34.16155010867809 15.299999999999995
vertex 20.640784930252057 34.16155010867809 3.0
endloop
endfacet
facet normal 0.0 -1.0 0.0
outer loop
vertex 20.640784930252057 34.16155010867809 15.299999999999995
vertex 50.040784930252045 34.16155010867809 3.0
vertex 50.040784930252045 34.16155010867809 15.299999999999995
endloop
endfacet
facet normal 0.0 1.0 0.0
outer loop
vertex 44.04078493025205 63.46155010867806 0.0
vertex 50.040784930252045 63.46155010867806 3.0
vertex 61.24078493025204 63.46155010867806 0.0
endloop
endfacet
facet normal 0.0 1.0 0.0
outer loop
vertex 50.040784930252045 63.46155010867806 3.0
vertex 44.04078493025205 63.46155010867806 0.0
vertex 44.04078493025205 63.46155010867806 15.299999999999995
endloop
endfacet
facet normal 0.0 1.0 0.0
outer loop
vertex 50.040784930252045 63.46155010867806 3.0
vertex 44.04078493025205 63.46155010867806 15.299999999999995
vertex 50.040784930252045 63.46155010867806 15.299999999999995
endloop
endfacet
facet normal 0.0 1.0 0.0
outer loop
vertex 61.24078493025204 63.46155010867806 0.0
vertex 55.240784930252055 63.46155010867806 3.0
vertex 61.24078493025204 63.46155010867806 15.299999999999995
endloop
endfacet
facet normal 0.0 1.0 0.0
outer loop
vertex 55.240784930252055 63.46155010867806 3.0
vertex 61.24078493025204 63.46155010867806 0.0
vertex 50.040784930252045 63.46155010867806 3.0
endloop
endfacet
facet normal 0.0 1.0 0.0
outer loop
vertex 61.24078493025204 63.46155010867806 15.299999999999995
vertex 55.240784930252055 63.46155010867806 3.0
vertex 55.240784930252055 63.46155010867806 15.299999999999995
endloop
endfacet
facet normal 1.0 -0.0 -0.0
outer loop
vertex 50.040784930252045 63.46155010867806 3.0
vertex 50.040784930252045 34.16155010867809 15.299999999999995
vertex 50.040784930252045 34.16155010867809 3.0
endloop
endfacet
facet normal 1.0 -0.0 -0.0
outer loop
vertex 50.040784930252045 34.16155010867809 15.299999999999995
vertex 50.040784930252045 63.46155010867806 3.0
vertex 50.040784930252045 63.46155010867806 15.299999999999995
endloop
endfacet
facet normal -1.0 0.0 0.0
outer loop
vertex 55.240784930252055 63.46155010867806 15.299999999999995
vertex 55.240784930252055 34.16155010867809 3.0
vertex 55.240784930252055 34.16155010867809 15.299999999999995
endloop
endfacet
facet normal -1.0 0.0 0.0
outer loop
vertex 55.240784930252055 34.16155010867809 3.0
vertex 55.240784930252055 63.46155010867806 15.299999999999995
vertex 55.240784930252055 63.46155010867806 3.0
endloop
endfacet
facet normal -0.0 -0.0 1.0
outer loop
vertex 20.640784930252057 34.16155010867809 15.299999999999995
vertex 25.140784930252057 38.16155010867809 15.299999999999995
vertex 20.640784930252057 40.16155010867809 15.299999999999995
endloop
endfacet
facet normal -0.0 -0.0 1.0
outer loop
vertex 25.140784930252057 38.16155010867809 15.299999999999995
vertex 20.640784930252057 34.16155010867809 15.299999999999995
vertex 50.040784930252045 34.16155010867809 15.299999999999995
endloop
endfacet
facet normal -0.0 -0.0 1.0
outer loop
vertex 20.640784930252057 40.16155010867809 15.299999999999995
vertex 25.140784930252057 38.16155010867809 15.299999999999995
vertex 23.640784930252057 40.16155010867809 15.299999999999995
endloop
endfacet
facet normal -0.0 -0.0 1.0
outer loop
vertex 25.140784930252057 38.16155010867809 15.299999999999995
vertex 50.040784930252045 34.16155010867809 15.299999999999995
vertex 41.54078493025205 38.16155010867809 15.299999999999995
endloop
endfacet
facet normal -0.0 -0.0 1.0
outer loop
vertex 41.54078493025205 38.16155010867809 15.299999999999995
vertex 50.040784930252045 34.16155010867809 15.299999999999995
vertex 43.04078493025205 41.16155010867809 15.299999999999995
endloop
endfacet
facet normal -0.0 -0.0 1.0
outer loop
vertex 43.04078493025205 41.16155010867809 15.299999999999995
vertex 50.040784930252045 34.16155010867809 15.299999999999995
vertex 46.040784930252045 42.66155010867809 15.299999999999995
endloop
endfacet
facet normal -0.0 -0.0 1.0
outer loop
vertex 46.040784930252045 42.66155010867809 15.299999999999995
vertex 50.040784930252045 34.16155010867809 15.299999999999995
vertex 46.040784930252045 58.961550108678075 15.299999999999995
endloop
endfacet
facet normal -0.0 -0.0 1.0
outer loop
vertex 46.040784930252045 58.961550108678075 15.299999999999995
vertex 44.04078493025205 63.46155010867806 15.299999999999995
vertex 44.04078493025205 60.46155010867807 15.299999999999995
endloop
endfacet
facet normal -0.0 -0.0 1.0
outer loop
vertex 44.04078493025205 63.46155010867806 15.299999999999995
vertex 46.040784930252045 58.961550108678075 15.299999999999995
vertex 50.040784930252045 63.46155010867806 15.299999999999995
endloop
endfacet
facet normal -0.0 -0.0 1.0
outer loop
vertex 50.040784930252045 63.46155010867806 15.299999999999995
vertex 46.040784930252045 58.961550108678075 15.299999999999995
vertex 50.040784930252045 34.16155010867809 15.299999999999995
endloop
endfacet
facet normal 0.0 -1.0 0.0
outer loop
vertex 84.54078493025204 34.16155010867809 15.299999999999995
vertex 55.240784930252055 34.16155010867809 3.0
vertex 84.54078493025204 34.16155010867809 3.0
endloop
endfacet
facet normal 0.0 -1.0 0.0
outer loop
vertex 55.240784930252055 34.16155010867809 3.0
vertex 84.54078493025204 34.16155010867809 15.299999999999995
vertex 55.240784930252055 34.16155010867809 15.299999999999995
endloop
endfacet
facet normal -0.0 -0.0 1.0
outer loop
vertex 55.240784930252055 -0.23844989132190084 15.299999999999995
vertex 59.24078493025204 4.3615501086781 15.299999999999995
vertex 55.240784930252055 28.9615501086781 15.299999999999995
endloop
endfacet
facet normal -0.0 -0.0 1.0
outer loop
vertex 59.24078493025204 4.3615501086781 15.299999999999995
vertex 55.240784930252055 -0.23844989132190084 15.299999999999995
vertex 61.24078493025204 -0.23844989132190084 15.299999999999995
endloop
endfacet
facet normal -0.0 -0.0 1.0
outer loop
vertex 59.24078493025204 4.3615501086781 15.299999999999995
vertex 61.24078493025204 -0.23844989132190084 15.299999999999995
vertex 61.24078493025204 2.761550108678099 15.299999999999995
endloop
endfacet
facet normal -0.0 -0.0 1.0
outer loop
vertex 55.240784930252055 28.9615501086781 15.299999999999995
vertex 63.74078493025203 24.9615501086781 15.299999999999995
vertex 84.54078493025204 28.9615501086781 15.299999999999995
endloop
endfacet
facet normal -0.0 -0.0 1.0
outer loop
vertex 63.74078493025203 24.9615501086781 15.299999999999995
vertex 55.240784930252055 28.9615501086781 15.299999999999995
vertex 59.24078493025204 20.4615501086781 15.299999999999995
endloop
endfacet
facet normal -0.0 -0.0 1.0
outer loop
vertex 59.24078493025204 20.4615501086781 15.299999999999995
vertex 55.240784930252055 28.9615501086781 15.299999999999995
vertex 59.24078493025204 4.3615501086781 15.299999999999995
endloop
endfacet
facet normal -0.0 -0.0 1.0
outer loop
vertex 63.74078493025203 24.9615501086781 15.299999999999995
vertex 59.24078493025204 20.4615501086781 15.299999999999995
vertex 62.24078493025204 21.9615501086781 15.299999999999995
endloop
endfacet
facet normal -0.0 -0.0 1.0
outer loop
vertex 84.54078493025204 28.9615501086781 15.299999999999995
vertex 63.74078493025203 24.9615501086781 15.299999999999995
vertex 80.04078493025204 24.9615501086781 15.299999999999995
endloop
endfacet
facet normal -0.0 -0.0 1.0
outer loop
vertex 84.54078493025204 28.9615501086781 15.299999999999995
vertex 80.04078493025204 24.9615501086781 15.299999999999995
vertex 81.54078493025204 22.961550108678104 15.299999999999995
endloop
endfacet
facet normal -0.0 -0.0 1.0
outer loop
vertex 84.54078493025204 28.9615501086781 15.299999999999995
vertex 81.54078493025204 22.961550108678104 15.299999999999995
vertex 84.54078493025204 22.961550108678104 15.299999999999995
endloop
endfacet
facet normal -0.0 -0.0 1.0
outer loop
vertex 50.040784930252045 -0.23844989132190084 15.299999999999995
vertex 44.04078493025205 2.761550108678099 15.299999999999995
vertex 44.04078493025205 -0.23844989132190084 15.299999999999995
endloop
endfacet
facet normal -0.0 -0.0 1.0
outer loop
vertex 44.04078493025205 2.761550108678099 15.299999999999995
vertex 50.040784930252045 -0.23844989132190084 15.299999999999995
vertex 46.040784930252045 4.261550108678099 15.299999999999995
endloop
endfacet
facet normal -0.0 -0.0 1.0
outer loop
vertex 46.040784930252045 4.261550108678099 15.299999999999995
vertex 50.040784930252045 -0.23844989132190084 15.299999999999995
vertex 46.040784930252045 20.461550108678107 15.299999999999995
endloop
endfacet
facet normal -0.0 -0.0 1.0
outer loop
vertex 23.640784930252057 22.961550108678104 15.299999999999995
vertex 20.640784930252057 28.9615501086781 15.299999999999995
vertex 20.640784930252057 22.961550108678104 15.299999999999995
endloop
endfacet
facet normal -0.0 -0.0 1.0
outer loop
vertex 20.640784930252057 28.9615501086781 15.299999999999995
vertex 23.640784930252057 22.961550108678104 15.299999999999995
vertex 25.140784930252057 24.9615501086781 15.299999999999995
endloop
endfacet
facet normal -0.0 -0.0 1.0
outer loop
vertex 20.640784930252057 28.9615501086781 15.299999999999995
vertex 25.140784930252057 24.9615501086781 15.299999999999995
vertex 50.040784930252045 28.9615501086781 15.299999999999995
endloop
endfacet
facet normal -0.0 -0.0 1.0
outer loop
vertex 50.040784930252045 28.9615501086781 15.299999999999995
vertex 25.140784930252057 24.9615501086781 15.299999999999995
vertex 41.540784930252045 24.9615501086781 15.299999999999995
endloop
endfacet
facet normal -0.0 -0.0 1.0
outer loop
vertex 50.040784930252045 28.9615501086781 15.299999999999995
vertex 41.540784930252045 24.9615501086781 15.299999999999995
vertex 43.040784930252045 21.961550108678107 15.299999999999995
endloop
endfacet
facet normal -0.0 -0.0 1.0
outer loop
vertex 50.040784930252045 28.9615501086781 15.299999999999995
vertex 43.040784930252045 21.961550108678107 15.299999999999995
vertex 46.040784930252045 20.461550108678107 15.299999999999995
endloop
endfacet
facet normal -0.0 -0.0 1.0
outer loop
vertex 50.040784930252045 28.9615501086781 15.299999999999995
vertex 46.040784930252045 20.461550108678107 15.299999999999995
vertex 50.040784930252045 -0.23844989132190084 15.299999999999995
endloop
endfacet
facet normal -1.0 0.0 0.0
outer loop
vertex 55.240784930252055 28.9615501086781 15.299999999999995
vertex 55.240784930252055 -0.23844989132190084 3.0
vertex 55.240784930252055 -0.23844989132190084 15.299999999999995
endloop
endfacet
facet normal -1.0 0.0 0.0
outer loop
vertex 55.240784930252055 -0.23844989132190084 3.0
vertex 55.240784930252055 28.9615501086781 15.299999999999995
vertex 55.240784930252055 28.9615501086781 3.0
endloop
endfacet
facet normal 1.0 -0.0 -0.0
outer loop
vertex 50.040784930252045 28.9615501086781 3.0
vertex 50.040784930252045 -0.23844989132190084 15.299999999999995
vertex 50.040784930252045 -0.23844989132190084 3.0
endloop
endfacet
facet normal 1.0 -0.0 -0.0
outer loop
vertex 50.040784930252045 -0.23844989132190084 15.299999999999995
vertex 50.040784930252045 28.9615501086781 3.0
vertex 50.040784930252045 28.9615501086781 15.299999999999995
endloop
endfacet
facet normal -0.0 1.0 -0.0
outer loop
vertex 20.640784930252057 28.9615501086781 15.299999999999995
vertex 50.040784930252045 28.9615501086781 3.0
vertex 20.640784930252057 28.9615501086781 3.0
endloop
endfacet
facet normal -0.0 1.0 -0.0
outer loop
vertex 50.040784930252045 28.9615501086781 3.0
vertex 20.640784930252057 28.9615501086781 15.299999999999995
vertex 50.040784930252045 28.9615501086781 15.299999999999995
endloop
endfacet
facet normal 0.0 -1.0 0.0
outer loop
vertex 61.24078493025204 -0.23844989132190084 0.0
vertex 55.240784930252055 -0.23844989132190084 3.0
vertex 44.04078493025205 -0.23844989132190084 0.0
endloop
endfacet
facet normal 0.0 -1.0 0.0
outer loop
vertex 55.240784930252055 -0.23844989132190084 3.0
vertex 61.24078493025204 -0.23844989132190084 0.0
vertex 61.24078493025204 -0.23844989132190084 15.299999999999995
endloop
endfacet
facet normal 0.0 -1.0 0.0
outer loop
vertex 55.240784930252055 -0.23844989132190084 3.0
vertex 61.24078493025204 -0.23844989132190084 15.299999999999995
vertex 55.240784930252055 -0.23844989132190084 15.299999999999995
endloop
endfacet
facet normal 0.0 -1.0 0.0
outer loop
vertex 44.04078493025205 -0.23844989132190084 0.0
vertex 50.040784930252045 -0.23844989132190084 3.0
vertex 44.04078493025205 -0.23844989132190084 15.299999999999995
endloop
endfacet
facet normal 0.0 -1.0 0.0
outer loop
vertex 50.040784930252045 -0.23844989132190084 3.0
vertex 44.04078493025205 -0.23844989132190084 0.0
vertex 55.240784930252055 -0.23844989132190084 3.0
endloop
endfacet
facet normal 0.0 -1.0 0.0
outer loop
vertex 44.04078493025205 -0.23844989132190084 15.299999999999995
vertex 50.040784930252045 -0.23844989132190084 3.0
vertex 50.040784930252045 -0.23844989132190084 15.299999999999995
endloop
endfacet
facet normal 1.0 -0.0 -0.0
outer loop
vertex 59.24078493025204 4.361550108678101 0.0
vertex 59.24078493025204 20.4615501086781 15.299999999999995
vertex 59.24078493025204 4.3615501086781 15.299999999999995
endloop
endfacet
facet normal 1.0 -0.0 -0.0
outer loop
vertex 59.24078493025204 20.4615501086781 15.299999999999995
vertex 59.24078493025204 4.361550108678101 0.0
vertex 59.24078493025204 20.4615501086781 0.0
endloop
endfacet
facet normal 0.8944271909999162 -0.44721359549995726 -0.0
outer loop
vertex 63.74078493025203 24.9615501086781 0.0
vertex 62.24078493025204 21.9615501086781 15.299999999999995
vertex 62.24078493025204 21.9615501086781 0.0
endloop
endfacet
facet normal 0.8944271909999162 -0.44721359549995726 -0.0
outer loop
vertex 62.24078493025204 21.9615501086781 15.299999999999995
vertex 63.74078493025203 24.9615501086781 0.0
vertex 63.74078493025203 24.9615501086781 15.299999999999995
endloop
endfacet
facet normal 0.44721359549995865 -0.8944271909999157 0.0
outer loop
vertex 62.24078493025204 21.9615501086781 15.299999999999995
vertex 59.24078493025204 20.4615501086781 0.0
vertex 62.24078493025204 21.9615501086781 0.0
endloop
endfacet
facet normal 0.44721359549995865 -0.8944271909999157 0.0
outer loop
vertex 59.24078493025204 20.4615501086781 0.0
vertex 62.24078493025204 21.9615501086781 15.299999999999995
vertex 59.24078493025204 20.4615501086781 15.299999999999995
endloop
endfacet
facet normal 1.0 0.0 0.0
outer loop
vertex 61.24078493025204 2.7615501086780996 0.0
vertex 61.24078493025204 -0.23844989132190084 15.299999999999995
vertex 61.24078493025204 -0.23844989132190084 0.0
endloop
endfacet
facet normal 1.0 0.0 0.0
outer loop
vertex 61.24078493025204 -0.23844989132190084 15.299999999999995
vertex 61.24078493025204 2.7615501086780996 0.0
vertex 61.24078493025204 2.761550108678099 15.299999999999995
endloop
endfacet
facet normal 0.6246950475544251 0.7808688094430297 2.98664009010259e-17
outer loop
vertex 59.24078493025204 4.3615501086781 15.299999999999995
vertex 61.24078493025204 2.7615501086780996 0.0
vertex 59.24078493025204 4.361550108678101 0.0
endloop
endfacet
facet normal 0.6246950475544251 0.7808688094430297 2.98664009010259e-17
outer loop
vertex 61.24078493025204 2.7615501086780996 0.0
vertex 59.24078493025204 4.3615501086781 15.299999999999995
vertex 61.24078493025204 2.761550108678099 15.299999999999995
endloop
endfacet
facet normal 0.0 -1.0 0.0
outer loop
vertex 80.04078493025204 24.9615501086781 15.299999999999995
vertex 63.74078493025203 24.9615501086781 0.0
vertex 80.04078493025204 24.9615501086781 0.0
endloop
endfacet
facet normal 0.0 -1.0 0.0
outer loop
vertex 63.74078493025203 24.9615501086781 0.0
vertex 80.04078493025204 24.9615501086781 15.299999999999995
vertex 63.74078493025203 24.9615501086781 15.299999999999995
endloop
endfacet
facet normal 0.0 -1.0 0.0
outer loop
vertex 84.54078493025204 22.961550108678104 15.299999999999995
vertex 81.54078493025203 22.961550108678104 0.0
vertex 84.54078493025204 22.961550108678104 0.0
endloop
endfacet
facet normal 0.0 -1.0 0.0
outer loop
vertex 81.54078493025203 22.961550108678104 0.0
vertex 84.54078493025204 22.961550108678104 15.299999999999995
vertex 81.54078493025204 22.961550108678104 15.299999999999995
endloop
endfacet
facet normal -0.8 -0.6 5.890138885222757e-16
outer loop
vertex 80.04078493025204 24.9615501086781 15.299999999999995
vertex 81.54078493025203 22.961550108678104 0.0
vertex 81.54078493025204 22.961550108678104 15.299999999999995
endloop
endfacet
facet normal -0.8 -0.6 5.890138885222757e-16
outer loop
vertex 81.54078493025203 22.961550108678104 0.0
vertex 80.04078493025204 24.9615501086781 15.299999999999995
vertex 80.04078493025204 24.9615501086781 0.0
endloop
endfacet
facet normal -1.0 0.0 0.0
outer loop
vertex 46.040784930252045 4.261550108678099 15.299999999999995
vertex 46.040784930252045 20.461550108678107 0.0
vertex 46.040784930252045 4.261550108678097 -1.4099832412739487e-15
endloop
endfacet
facet normal -1.0 0.0 0.0
outer loop
vertex 46.040784930252045 20.461550108678107 0.0
vertex 46.040784930252045 4.261550108678099 15.299999999999995
vertex 46.040784930252045 20.461550108678107 15.299999999999995
endloop
endfacet
facet normal -1.0 0.0 0.0
outer loop
vertex 44.04078493025205 2.761550108678099 15.299999999999995
vertex 44.04078493025205 -0.23844989132190084 0.0
vertex 44.04078493025205 -0.23844989132190084 15.299999999999995
endloop
endfacet
facet normal -1.0 0.0 0.0
outer loop
vertex 44.04078493025205 -0.23844989132190084 0.0
vertex 44.04078493025205 2.761550108678099 15.299999999999995
vertex 44.04078493025205 2.7615501086780965 -1.4099832412739487e-15
endloop
endfacet
facet normal -0.6000000000000009 0.7999999999999995 -1.2239249631631694e-16
outer loop
vertex 44.04078493025205 2.761550108678099 15.299999999999995
vertex 46.040784930252045 4.261550108678097 -1.4099832412739487e-15
vertex 44.04078493025205 2.7615501086780965 -1.4099832412739487e-15
endloop
endfacet
facet normal -0.6000000000000009 0.7999999999999995 -1.2239249631631694e-16
outer loop
vertex 46.040784930252045 4.261550108678097 -1.4099832412739487e-15
vertex 44.04078493025205 2.761550108678099 15.299999999999995
vertex 46.040784930252045 4.261550108678099 15.299999999999995
endloop
endfacet
facet normal 0.0 -1.0 0.0
outer loop
vertex 41.540784930252045 24.9615501086781 15.299999999999995
vertex 25.140784930252057 24.9615501086781 0.0
vertex 41.540784930252045 24.9615501086781 0.0
endloop
endfacet
facet normal 0.0 -1.0 0.0
outer loop
vertex 25.140784930252057 24.9615501086781 0.0
vertex 41.540784930252045 24.9615501086781 15.299999999999995
vertex 25.140784930252057 24.9615501086781 15.299999999999995
endloop
endfacet
facet normal -0.44721359549995804 -0.8944271909999161 0.0
outer loop
vertex 46.040784930252045 20.461550108678107 15.299999999999995
vertex 43.040784930252045 21.961550108678107 0.0
vertex 46.040784930252045 20.461550108678107 0.0
endloop
endfacet
facet normal -0.44721359549995804 -0.8944271909999161 0.0
outer loop
vertex 43.040784930252045 21.961550108678107 0.0
vertex 46.040784930252045 20.461550108678107 15.299999999999995
vertex 43.040784930252045 21.961550108678107 15.299999999999995
endloop
endfacet
facet normal -0.8944271909999161 -0.44721359549995804 0.0
outer loop
vertex 41.540784930252045 24.9615501086781 15.299999999999995
vertex 43.040784930252045 21.961550108678107 0.0
vertex 43.040784930252045 21.961550108678107 15.299999999999995
endloop
endfacet
facet normal -0.8944271909999161 -0.44721359549995804 0.0
outer loop
vertex 43.040784930252045 21.961550108678107 0.0
vertex 41.540784930252045 24.9615501086781 15.299999999999995
vertex 41.540784930252045 24.9615501086781 0.0
endloop
endfacet
facet normal 0.0 -1.0 0.0
outer loop
vertex 23.640784930252057 22.961550108678104 15.299999999999995
vertex 20.640784930252057 22.961550108678104 0.0
vertex 23.640784930252057 22.961550108678104 0.0
endloop
endfacet
facet normal 0.0 -1.0 0.0
outer loop
vertex 20.640784930252057 22.961550108678104 0.0
vertex 23.640784930252057 22.961550108678104 15.299999999999995
vertex 20.640784930252057 22.961550108678104 15.299999999999995
endloop
endfacet
facet normal 0.7999999999999994 -0.6000000000000008 -0.0
outer loop
vertex 25.140784930252057 24.9615501086781 0.0
vertex 23.640784930252057 22.961550108678104 15.299999999999995
vertex 23.640784930252057 22.961550108678104 0.0
endloop
endfacet
facet normal 0.7999999999999994 -0.6000000000000008 -0.0
outer loop
vertex 23.640784930252057 22.961550108678104 15.299999999999995
vertex 25.140784930252057 24.9615501086781 0.0
vertex 25.140784930252057 24.9615501086781 15.299999999999995
endloop
endfacet
facet normal -0.0 1.0 -0.0
outer loop
vertex 25.140784930252057 38.16155010867809 15.299999999999995
vertex 41.54078493025205 38.16155010867809 0.0
vertex 25.140784930252057 38.16155010867809 0.0
endloop
endfacet
facet normal -0.0 1.0 -0.0
outer loop
vertex 41.54078493025205 38.16155010867809 0.0
vertex 25.140784930252057 38.16155010867809 15.299999999999995
vertex 41.54078493025205 38.16155010867809 15.299999999999995
endloop
endfacet
facet normal 0.0 1.0 0.0
outer loop
vertex 20.640784930252057 40.16155010867809 15.299999999999995
vertex 23.640784930252057 40.16155010867809 0.0
vertex 20.640784930252057 40.16155010867809 0.0
endloop
endfacet
facet normal 0.0 1.0 0.0
outer loop
vertex 23.640784930252057 40.16155010867809 0.0
vertex 20.640784930252057 40.16155010867809 15.299999999999995
vertex 23.640784930252057 40.16155010867809 15.299999999999995
endloop
endfacet
facet normal 0.7999999999999994 0.6000000000000008 -0.0
outer loop
vertex 23.640784930252057 40.16155010867809 0.0
vertex 25.140784930252057 38.16155010867809 15.299999999999995
vertex 25.140784930252057 38.16155010867809 0.0
endloop
endfacet
facet normal 0.7999999999999994 0.6000000000000008 -0.0
outer loop
vertex 25.140784930252057 38.16155010867809 15.299999999999995
vertex 23.640784930252057 40.16155010867809 0.0
vertex 23.640784930252057 40.16155010867809 15.299999999999995
endloop
endfacet
facet normal -1.0 0.0 0.0
outer loop
vertex 46.040784930252045 58.961550108678075 15.299999999999995
vertex 46.040784930252045 42.66155010867809 0.0
vertex 46.040784930252045 42.66155010867809 15.299999999999995
endloop
endfacet
facet normal -1.0 0.0 0.0
outer loop
vertex 46.040784930252045 42.66155010867809 0.0
vertex 46.040784930252045 58.961550108678075 15.299999999999995
vertex 46.040784930252045 58.96155010867806 0.0
endloop
endfacet
facet normal -0.8944271909999162 0.44721359549995726 0.0
outer loop
vertex 43.04078493025205 41.16155010867809 15.299999999999995
vertex 41.54078493025205 38.16155010867809 0.0
vertex 41.54078493025205 38.16155010867809 15.299999999999995
endloop
endfacet
facet normal -0.8944271909999162 0.44721359549995726 0.0
outer loop
vertex 41.54078493025205 38.16155010867809 0.0
vertex 43.04078493025205 41.16155010867809 15.299999999999995
vertex 43.04078493025205 41.16155010867809 0.0
endloop
endfacet
facet normal -0.44721359549995804 0.8944271909999161 -0.0
outer loop
vertex 43.04078493025205 41.16155010867809 15.299999999999995
vertex 46.040784930252045 42.66155010867809 0.0
vertex 43.04078493025205 41.16155010867809 0.0
endloop
endfacet
facet normal -0.44721359549995804 0.8944271909999161 -0.0
outer loop
vertex 46.040784930252045 42.66155010867809 0.0
vertex 43.04078493025205 41.16155010867809 15.299999999999995
vertex 46.040784930252045 42.66155010867809 15.299999999999995
endloop
endfacet
facet normal 0.0 1.0 0.0
outer loop
vertex 81.54078493025203 40.16155010867809 15.299999999999995
vertex 84.54078493025204 40.16155010867809 0.0
vertex 81.54078493025203 40.16155010867809 0.0
endloop
endfacet
facet normal 0.0 1.0 0.0
outer loop
vertex 84.54078493025204 40.16155010867809 0.0
vertex 81.54078493025203 40.16155010867809 15.299999999999995
vertex 84.54078493025204 40.16155010867809 15.299999999999995
endloop
endfacet
facet normal -0.8 0.6000000000000001 0.0
outer loop
vertex 81.54078493025203 40.16155010867809 15.299999999999995
vertex 80.04078493025204 38.16155010867809 0.0
vertex 80.04078493025204 38.16155010867809 15.299999999999995
endloop
endfacet
facet normal -0.8 0.6000000000000001 0.0
outer loop
vertex 80.04078493025204 38.16155010867809 0.0
vertex 81.54078493025203 40.16155010867809 15.299999999999995
vertex 81.54078493025203 40.16155010867809 0.0
endloop
endfacet
facet normal -0.0 1.0 -0.0
outer loop
vertex 63.74078493025203 38.16155010867809 15.299999999999995
vertex 80.04078493025204 38.16155010867809 0.0
vertex 63.74078493025205 38.16155010867809 0.0
endloop
endfacet
facet normal -0.0 1.0 -0.0
outer loop
vertex 80.04078493025204 38.16155010867809 0.0
vertex 63.74078493025203 38.16155010867809 15.299999999999995
vertex 80.04078493025204 38.16155010867809 15.299999999999995
endloop
endfacet
facet normal 0.44721359549995726 0.8944271909999162 1.6677249572293604e-16
outer loop
vertex 59.24078493025204 42.661550108678085 15.299999999999995
vertex 62.24078493025205 41.161550108678085 0.0
vertex 59.24078493025204 42.661550108678085 0.0
endloop
endfacet
facet normal 0.44721359549995726 0.8944271909999162 1.6677249572293604e-16
outer loop
vertex 62.24078493025205 41.161550108678085 0.0
vertex 59.24078493025204 42.661550108678085 15.299999999999995
vertex 62.24078493025204 41.161550108678085 15.299999999999995
endloop
endfacet
facet normal 0.8944271909999161 0.4472135954999579 6.585375472136459e-16
outer loop
vertex 62.24078493025205 41.161550108678085 0.0
vertex 63.74078493025203 38.16155010867809 15.299999999999995
vertex 63.74078493025205 38.16155010867809 0.0
endloop
endfacet
facet normal 0.8944271909999161 0.4472135954999579 6.585375472136459e-16
outer loop
vertex 63.74078493025203 38.16155010867809 15.299999999999995
vertex 62.24078493025205 41.161550108678085 0.0
vertex 62.24078493025204 41.161550108678085 15.299999999999995
endloop
endfacet
facet normal 1.0 -0.0 -0.0
outer loop
vertex 59.24078493025204 58.961550108678075 0.0
vertex 59.24078493025204 42.661550108678085 15.299999999999995
vertex 59.24078493025204 42.661550108678085 0.0
endloop
endfacet
facet normal 1.0 -0.0 -0.0
outer loop
vertex 59.24078493025204 42.661550108678085 15.299999999999995
vertex 59.24078493025204 58.961550108678075 0.0
vertex 59.24078493025204 58.961550108678075 15.299999999999995
endloop
endfacet
facet normal 1.0 0.0 0.0
outer loop
vertex 61.24078493025204 63.46155010867806 0.0
vertex 61.24078493025204 60.46155010867807 15.299999999999995
vertex 61.24078493025204 60.46155010867807 0.0
endloop
endfacet
facet normal 1.0 0.0 0.0
outer loop
vertex 61.24078493025204 60.46155010867807 15.299999999999995
vertex 61.24078493025204 63.46155010867806 0.0
vertex 61.24078493025204 63.46155010867806 15.299999999999995
endloop
endfacet
facet normal 0.6000000000000001 -0.8 0.0
outer loop
vertex 61.24078493025204 60.46155010867807 15.299999999999995
vertex 59.24078493025204 58.961550108678075 0.0
vertex 61.24078493025204 60.46155010867807 0.0
endloop
endfacet
facet normal 0.6000000000000001 -0.8 0.0
outer loop
vertex 59.24078493025204 58.961550108678075 0.0
vertex 61.24078493025204 60.46155010867807 15.299999999999995
vertex 59.24078493025204 58.961550108678075 15.299999999999995
endloop
endfacet
facet normal -1.0 0.0 0.0
outer loop
vertex 44.04078493025205 60.46155010867807 15.299999999999995
vertex 44.04078493025205 63.46155010867806 0.0
vertex 44.04078493025205 60.46155010867806 0.0
endloop
endfacet
facet normal -1.0 0.0 0.0
outer loop
vertex 44.04078493025205 63.46155010867806 0.0
vertex 44.04078493025205 60.46155010867807 15.299999999999995
vertex 44.04078493025205 63.46155010867806 15.299999999999995
endloop
endfacet
facet normal -0.6 -0.8 5.890138885222757e-16
outer loop
vertex 46.040784930252045 58.961550108678075 15.299999999999995
vertex 44.04078493025205 60.46155010867806 0.0
vertex 46.040784930252045 58.96155010867806 0.0
endloop
endfacet
facet normal -0.6 -0.8 5.890138885222757e-16
outer loop
vertex 44.04078493025205 60.46155010867806 0.0
vertex 46.040784930252045 58.961550108678075 15.299999999999995
vertex 44.04078493025205 60.46155010867807 15.299999999999995
endloop
endfacet
endsolid croix
